%TF.GenerationSoftware,KiCad,Pcbnew,7.0.7*%
%TF.CreationDate,2023-10-02T10:19:24+01:00*%
%TF.ProjectId,8052-MCU,38303532-2d4d-4435-952e-6b696361645f,0.1*%
%TF.SameCoordinates,Original*%
%TF.FileFunction,Legend,Top*%
%TF.FilePolarity,Positive*%
%FSLAX46Y46*%
G04 Gerber Fmt 4.6, Leading zero omitted, Abs format (unit mm)*
G04 Created by KiCad (PCBNEW 7.0.7) date 2023-10-02 10:19:24*
%MOMM*%
%LPD*%
G01*
G04 APERTURE LIST*
%ADD10C,0.150000*%
%ADD11C,0.120000*%
G04 APERTURE END LIST*
D10*
X89698095Y-52099819D02*
X89698095Y-52909342D01*
X89698095Y-52909342D02*
X89745714Y-53004580D01*
X89745714Y-53004580D02*
X89793333Y-53052200D01*
X89793333Y-53052200D02*
X89888571Y-53099819D01*
X89888571Y-53099819D02*
X90079047Y-53099819D01*
X90079047Y-53099819D02*
X90174285Y-53052200D01*
X90174285Y-53052200D02*
X90221904Y-53004580D01*
X90221904Y-53004580D02*
X90269523Y-52909342D01*
X90269523Y-52909342D02*
X90269523Y-52099819D01*
X90698095Y-52195057D02*
X90745714Y-52147438D01*
X90745714Y-52147438D02*
X90840952Y-52099819D01*
X90840952Y-52099819D02*
X91079047Y-52099819D01*
X91079047Y-52099819D02*
X91174285Y-52147438D01*
X91174285Y-52147438D02*
X91221904Y-52195057D01*
X91221904Y-52195057D02*
X91269523Y-52290295D01*
X91269523Y-52290295D02*
X91269523Y-52385533D01*
X91269523Y-52385533D02*
X91221904Y-52528390D01*
X91221904Y-52528390D02*
X90650476Y-53099819D01*
X90650476Y-53099819D02*
X91269523Y-53099819D01*
X141038095Y-105454819D02*
X141038095Y-104454819D01*
X141038095Y-104931009D02*
X141609523Y-104931009D01*
X141609523Y-105454819D02*
X141609523Y-104454819D01*
X142514285Y-104788152D02*
X142514285Y-105454819D01*
X142276190Y-104407200D02*
X142038095Y-105121485D01*
X142038095Y-105121485D02*
X142657142Y-105121485D01*
X59154819Y-105161904D02*
X58154819Y-105161904D01*
X58631009Y-105161904D02*
X58631009Y-104590476D01*
X59154819Y-104590476D02*
X58154819Y-104590476D01*
X58250057Y-104161904D02*
X58202438Y-104114285D01*
X58202438Y-104114285D02*
X58154819Y-104019047D01*
X58154819Y-104019047D02*
X58154819Y-103780952D01*
X58154819Y-103780952D02*
X58202438Y-103685714D01*
X58202438Y-103685714D02*
X58250057Y-103638095D01*
X58250057Y-103638095D02*
X58345295Y-103590476D01*
X58345295Y-103590476D02*
X58440533Y-103590476D01*
X58440533Y-103590476D02*
X58583390Y-103638095D01*
X58583390Y-103638095D02*
X59154819Y-104209523D01*
X59154819Y-104209523D02*
X59154819Y-103590476D01*
X92766666Y-79994819D02*
X92766666Y-80709104D01*
X92766666Y-80709104D02*
X92719047Y-80851961D01*
X92719047Y-80851961D02*
X92623809Y-80947200D01*
X92623809Y-80947200D02*
X92480952Y-80994819D01*
X92480952Y-80994819D02*
X92385714Y-80994819D01*
X93242857Y-80994819D02*
X93242857Y-79994819D01*
X93242857Y-79994819D02*
X93623809Y-79994819D01*
X93623809Y-79994819D02*
X93719047Y-80042438D01*
X93719047Y-80042438D02*
X93766666Y-80090057D01*
X93766666Y-80090057D02*
X93814285Y-80185295D01*
X93814285Y-80185295D02*
X93814285Y-80328152D01*
X93814285Y-80328152D02*
X93766666Y-80423390D01*
X93766666Y-80423390D02*
X93719047Y-80471009D01*
X93719047Y-80471009D02*
X93623809Y-80518628D01*
X93623809Y-80518628D02*
X93242857Y-80518628D01*
X94195238Y-80090057D02*
X94242857Y-80042438D01*
X94242857Y-80042438D02*
X94338095Y-79994819D01*
X94338095Y-79994819D02*
X94576190Y-79994819D01*
X94576190Y-79994819D02*
X94671428Y-80042438D01*
X94671428Y-80042438D02*
X94719047Y-80090057D01*
X94719047Y-80090057D02*
X94766666Y-80185295D01*
X94766666Y-80185295D02*
X94766666Y-80280533D01*
X94766666Y-80280533D02*
X94719047Y-80423390D01*
X94719047Y-80423390D02*
X94147619Y-80994819D01*
X94147619Y-80994819D02*
X94766666Y-80994819D01*
X67958095Y-52124819D02*
X67958095Y-52934342D01*
X67958095Y-52934342D02*
X68005714Y-53029580D01*
X68005714Y-53029580D02*
X68053333Y-53077200D01*
X68053333Y-53077200D02*
X68148571Y-53124819D01*
X68148571Y-53124819D02*
X68339047Y-53124819D01*
X68339047Y-53124819D02*
X68434285Y-53077200D01*
X68434285Y-53077200D02*
X68481904Y-53029580D01*
X68481904Y-53029580D02*
X68529523Y-52934342D01*
X68529523Y-52934342D02*
X68529523Y-52124819D01*
X69529523Y-53124819D02*
X68958095Y-53124819D01*
X69243809Y-53124819D02*
X69243809Y-52124819D01*
X69243809Y-52124819D02*
X69148571Y-52267676D01*
X69148571Y-52267676D02*
X69053333Y-52362914D01*
X69053333Y-52362914D02*
X68958095Y-52410533D01*
X96566666Y-79994819D02*
X96566666Y-80709104D01*
X96566666Y-80709104D02*
X96519047Y-80851961D01*
X96519047Y-80851961D02*
X96423809Y-80947200D01*
X96423809Y-80947200D02*
X96280952Y-80994819D01*
X96280952Y-80994819D02*
X96185714Y-80994819D01*
X97042857Y-80994819D02*
X97042857Y-79994819D01*
X97042857Y-79994819D02*
X97423809Y-79994819D01*
X97423809Y-79994819D02*
X97519047Y-80042438D01*
X97519047Y-80042438D02*
X97566666Y-80090057D01*
X97566666Y-80090057D02*
X97614285Y-80185295D01*
X97614285Y-80185295D02*
X97614285Y-80328152D01*
X97614285Y-80328152D02*
X97566666Y-80423390D01*
X97566666Y-80423390D02*
X97519047Y-80471009D01*
X97519047Y-80471009D02*
X97423809Y-80518628D01*
X97423809Y-80518628D02*
X97042857Y-80518628D01*
X98471428Y-80328152D02*
X98471428Y-80994819D01*
X98233333Y-79947200D02*
X97995238Y-80661485D01*
X97995238Y-80661485D02*
X98614285Y-80661485D01*
X131654819Y-93261904D02*
X132464342Y-93261904D01*
X132464342Y-93261904D02*
X132559580Y-93214285D01*
X132559580Y-93214285D02*
X132607200Y-93166666D01*
X132607200Y-93166666D02*
X132654819Y-93071428D01*
X132654819Y-93071428D02*
X132654819Y-92880952D01*
X132654819Y-92880952D02*
X132607200Y-92785714D01*
X132607200Y-92785714D02*
X132559580Y-92738095D01*
X132559580Y-92738095D02*
X132464342Y-92690476D01*
X132464342Y-92690476D02*
X131654819Y-92690476D01*
X131654819Y-91785714D02*
X131654819Y-91976190D01*
X131654819Y-91976190D02*
X131702438Y-92071428D01*
X131702438Y-92071428D02*
X131750057Y-92119047D01*
X131750057Y-92119047D02*
X131892914Y-92214285D01*
X131892914Y-92214285D02*
X132083390Y-92261904D01*
X132083390Y-92261904D02*
X132464342Y-92261904D01*
X132464342Y-92261904D02*
X132559580Y-92214285D01*
X132559580Y-92214285D02*
X132607200Y-92166666D01*
X132607200Y-92166666D02*
X132654819Y-92071428D01*
X132654819Y-92071428D02*
X132654819Y-91880952D01*
X132654819Y-91880952D02*
X132607200Y-91785714D01*
X132607200Y-91785714D02*
X132559580Y-91738095D01*
X132559580Y-91738095D02*
X132464342Y-91690476D01*
X132464342Y-91690476D02*
X132226247Y-91690476D01*
X132226247Y-91690476D02*
X132131009Y-91738095D01*
X132131009Y-91738095D02*
X132083390Y-91785714D01*
X132083390Y-91785714D02*
X132035771Y-91880952D01*
X132035771Y-91880952D02*
X132035771Y-92071428D01*
X132035771Y-92071428D02*
X132083390Y-92166666D01*
X132083390Y-92166666D02*
X132131009Y-92214285D01*
X132131009Y-92214285D02*
X132226247Y-92261904D01*
X128938095Y-52054819D02*
X128938095Y-52864342D01*
X128938095Y-52864342D02*
X128985714Y-52959580D01*
X128985714Y-52959580D02*
X129033333Y-53007200D01*
X129033333Y-53007200D02*
X129128571Y-53054819D01*
X129128571Y-53054819D02*
X129319047Y-53054819D01*
X129319047Y-53054819D02*
X129414285Y-53007200D01*
X129414285Y-53007200D02*
X129461904Y-52959580D01*
X129461904Y-52959580D02*
X129509523Y-52864342D01*
X129509523Y-52864342D02*
X129509523Y-52054819D01*
X130414285Y-52388152D02*
X130414285Y-53054819D01*
X130176190Y-52007200D02*
X129938095Y-52721485D01*
X129938095Y-52721485D02*
X130557142Y-52721485D01*
X141754819Y-55073333D02*
X142469104Y-55073333D01*
X142469104Y-55073333D02*
X142611961Y-55120952D01*
X142611961Y-55120952D02*
X142707200Y-55216190D01*
X142707200Y-55216190D02*
X142754819Y-55359047D01*
X142754819Y-55359047D02*
X142754819Y-55454285D01*
X141754819Y-54692380D02*
X141754819Y-54073333D01*
X141754819Y-54073333D02*
X142135771Y-54406666D01*
X142135771Y-54406666D02*
X142135771Y-54263809D01*
X142135771Y-54263809D02*
X142183390Y-54168571D01*
X142183390Y-54168571D02*
X142231009Y-54120952D01*
X142231009Y-54120952D02*
X142326247Y-54073333D01*
X142326247Y-54073333D02*
X142564342Y-54073333D01*
X142564342Y-54073333D02*
X142659580Y-54120952D01*
X142659580Y-54120952D02*
X142707200Y-54168571D01*
X142707200Y-54168571D02*
X142754819Y-54263809D01*
X142754819Y-54263809D02*
X142754819Y-54549523D01*
X142754819Y-54549523D02*
X142707200Y-54644761D01*
X142707200Y-54644761D02*
X142659580Y-54692380D01*
X125854819Y-93588094D02*
X126664342Y-93588094D01*
X126664342Y-93588094D02*
X126759580Y-93540475D01*
X126759580Y-93540475D02*
X126807200Y-93492856D01*
X126807200Y-93492856D02*
X126854819Y-93397618D01*
X126854819Y-93397618D02*
X126854819Y-93207142D01*
X126854819Y-93207142D02*
X126807200Y-93111904D01*
X126807200Y-93111904D02*
X126759580Y-93064285D01*
X126759580Y-93064285D02*
X126664342Y-93016666D01*
X126664342Y-93016666D02*
X125854819Y-93016666D01*
X126854819Y-92016666D02*
X126854819Y-92588094D01*
X126854819Y-92302380D02*
X125854819Y-92302380D01*
X125854819Y-92302380D02*
X125997676Y-92397618D01*
X125997676Y-92397618D02*
X126092914Y-92492856D01*
X126092914Y-92492856D02*
X126140533Y-92588094D01*
X125854819Y-91397618D02*
X125854819Y-91302380D01*
X125854819Y-91302380D02*
X125902438Y-91207142D01*
X125902438Y-91207142D02*
X125950057Y-91159523D01*
X125950057Y-91159523D02*
X126045295Y-91111904D01*
X126045295Y-91111904D02*
X126235771Y-91064285D01*
X126235771Y-91064285D02*
X126473866Y-91064285D01*
X126473866Y-91064285D02*
X126664342Y-91111904D01*
X126664342Y-91111904D02*
X126759580Y-91159523D01*
X126759580Y-91159523D02*
X126807200Y-91207142D01*
X126807200Y-91207142D02*
X126854819Y-91302380D01*
X126854819Y-91302380D02*
X126854819Y-91397618D01*
X126854819Y-91397618D02*
X126807200Y-91492856D01*
X126807200Y-91492856D02*
X126759580Y-91540475D01*
X126759580Y-91540475D02*
X126664342Y-91588094D01*
X126664342Y-91588094D02*
X126473866Y-91635713D01*
X126473866Y-91635713D02*
X126235771Y-91635713D01*
X126235771Y-91635713D02*
X126045295Y-91588094D01*
X126045295Y-91588094D02*
X125950057Y-91540475D01*
X125950057Y-91540475D02*
X125902438Y-91492856D01*
X125902438Y-91492856D02*
X125854819Y-91397618D01*
X139238095Y-43454819D02*
X139238095Y-42454819D01*
X139238095Y-42931009D02*
X139809523Y-42931009D01*
X139809523Y-43454819D02*
X139809523Y-42454819D01*
X140809523Y-43454819D02*
X140238095Y-43454819D01*
X140523809Y-43454819D02*
X140523809Y-42454819D01*
X140523809Y-42454819D02*
X140428571Y-42597676D01*
X140428571Y-42597676D02*
X140333333Y-42692914D01*
X140333333Y-42692914D02*
X140238095Y-42740533D01*
X138589819Y-99536904D02*
X139399342Y-99536904D01*
X139399342Y-99536904D02*
X139494580Y-99489285D01*
X139494580Y-99489285D02*
X139542200Y-99441666D01*
X139542200Y-99441666D02*
X139589819Y-99346428D01*
X139589819Y-99346428D02*
X139589819Y-99155952D01*
X139589819Y-99155952D02*
X139542200Y-99060714D01*
X139542200Y-99060714D02*
X139494580Y-99013095D01*
X139494580Y-99013095D02*
X139399342Y-98965476D01*
X139399342Y-98965476D02*
X138589819Y-98965476D01*
X138589819Y-98584523D02*
X138589819Y-97917857D01*
X138589819Y-97917857D02*
X139589819Y-98346428D01*
X58054819Y-54583333D02*
X58769104Y-54583333D01*
X58769104Y-54583333D02*
X58911961Y-54630952D01*
X58911961Y-54630952D02*
X59007200Y-54726190D01*
X59007200Y-54726190D02*
X59054819Y-54869047D01*
X59054819Y-54869047D02*
X59054819Y-54964285D01*
X58150057Y-54154761D02*
X58102438Y-54107142D01*
X58102438Y-54107142D02*
X58054819Y-54011904D01*
X58054819Y-54011904D02*
X58054819Y-53773809D01*
X58054819Y-53773809D02*
X58102438Y-53678571D01*
X58102438Y-53678571D02*
X58150057Y-53630952D01*
X58150057Y-53630952D02*
X58245295Y-53583333D01*
X58245295Y-53583333D02*
X58340533Y-53583333D01*
X58340533Y-53583333D02*
X58483390Y-53630952D01*
X58483390Y-53630952D02*
X59054819Y-54202380D01*
X59054819Y-54202380D02*
X59054819Y-53583333D01*
X74854819Y-108783333D02*
X75569104Y-108783333D01*
X75569104Y-108783333D02*
X75711961Y-108830952D01*
X75711961Y-108830952D02*
X75807200Y-108926190D01*
X75807200Y-108926190D02*
X75854819Y-109069047D01*
X75854819Y-109069047D02*
X75854819Y-109164285D01*
X75854819Y-107783333D02*
X75854819Y-108354761D01*
X75854819Y-108069047D02*
X74854819Y-108069047D01*
X74854819Y-108069047D02*
X74997676Y-108164285D01*
X74997676Y-108164285D02*
X75092914Y-108259523D01*
X75092914Y-108259523D02*
X75140533Y-108354761D01*
X86166666Y-80034819D02*
X86166666Y-80749104D01*
X86166666Y-80749104D02*
X86119047Y-80891961D01*
X86119047Y-80891961D02*
X86023809Y-80987200D01*
X86023809Y-80987200D02*
X85880952Y-81034819D01*
X85880952Y-81034819D02*
X85785714Y-81034819D01*
X86642857Y-81034819D02*
X86642857Y-80034819D01*
X86642857Y-80034819D02*
X87023809Y-80034819D01*
X87023809Y-80034819D02*
X87119047Y-80082438D01*
X87119047Y-80082438D02*
X87166666Y-80130057D01*
X87166666Y-80130057D02*
X87214285Y-80225295D01*
X87214285Y-80225295D02*
X87214285Y-80368152D01*
X87214285Y-80368152D02*
X87166666Y-80463390D01*
X87166666Y-80463390D02*
X87119047Y-80511009D01*
X87119047Y-80511009D02*
X87023809Y-80558628D01*
X87023809Y-80558628D02*
X86642857Y-80558628D01*
X88166666Y-81034819D02*
X87595238Y-81034819D01*
X87880952Y-81034819D02*
X87880952Y-80034819D01*
X87880952Y-80034819D02*
X87785714Y-80177676D01*
X87785714Y-80177676D02*
X87690476Y-80272914D01*
X87690476Y-80272914D02*
X87595238Y-80320533D01*
X84254819Y-67145476D02*
X83778628Y-67478809D01*
X84254819Y-67716904D02*
X83254819Y-67716904D01*
X83254819Y-67716904D02*
X83254819Y-67335952D01*
X83254819Y-67335952D02*
X83302438Y-67240714D01*
X83302438Y-67240714D02*
X83350057Y-67193095D01*
X83350057Y-67193095D02*
X83445295Y-67145476D01*
X83445295Y-67145476D02*
X83588152Y-67145476D01*
X83588152Y-67145476D02*
X83683390Y-67193095D01*
X83683390Y-67193095D02*
X83731009Y-67240714D01*
X83731009Y-67240714D02*
X83778628Y-67335952D01*
X83778628Y-67335952D02*
X83778628Y-67716904D01*
X84254819Y-66716904D02*
X83254819Y-66716904D01*
X83254819Y-66716904D02*
X84254819Y-66145476D01*
X84254819Y-66145476D02*
X83254819Y-66145476D01*
X84254819Y-65145476D02*
X84254819Y-65716904D01*
X84254819Y-65431190D02*
X83254819Y-65431190D01*
X83254819Y-65431190D02*
X83397676Y-65526428D01*
X83397676Y-65526428D02*
X83492914Y-65621666D01*
X83492914Y-65621666D02*
X83540533Y-65716904D01*
X107638095Y-52054819D02*
X107638095Y-52864342D01*
X107638095Y-52864342D02*
X107685714Y-52959580D01*
X107685714Y-52959580D02*
X107733333Y-53007200D01*
X107733333Y-53007200D02*
X107828571Y-53054819D01*
X107828571Y-53054819D02*
X108019047Y-53054819D01*
X108019047Y-53054819D02*
X108114285Y-53007200D01*
X108114285Y-53007200D02*
X108161904Y-52959580D01*
X108161904Y-52959580D02*
X108209523Y-52864342D01*
X108209523Y-52864342D02*
X108209523Y-52054819D01*
X108590476Y-52054819D02*
X109209523Y-52054819D01*
X109209523Y-52054819D02*
X108876190Y-52435771D01*
X108876190Y-52435771D02*
X109019047Y-52435771D01*
X109019047Y-52435771D02*
X109114285Y-52483390D01*
X109114285Y-52483390D02*
X109161904Y-52531009D01*
X109161904Y-52531009D02*
X109209523Y-52626247D01*
X109209523Y-52626247D02*
X109209523Y-52864342D01*
X109209523Y-52864342D02*
X109161904Y-52959580D01*
X109161904Y-52959580D02*
X109114285Y-53007200D01*
X109114285Y-53007200D02*
X109019047Y-53054819D01*
X109019047Y-53054819D02*
X108733333Y-53054819D01*
X108733333Y-53054819D02*
X108638095Y-53007200D01*
X108638095Y-53007200D02*
X108590476Y-52959580D01*
X82366666Y-80049819D02*
X82366666Y-80764104D01*
X82366666Y-80764104D02*
X82319047Y-80906961D01*
X82319047Y-80906961D02*
X82223809Y-81002200D01*
X82223809Y-81002200D02*
X82080952Y-81049819D01*
X82080952Y-81049819D02*
X81985714Y-81049819D01*
X82842857Y-81049819D02*
X82842857Y-80049819D01*
X82842857Y-80049819D02*
X83223809Y-80049819D01*
X83223809Y-80049819D02*
X83319047Y-80097438D01*
X83319047Y-80097438D02*
X83366666Y-80145057D01*
X83366666Y-80145057D02*
X83414285Y-80240295D01*
X83414285Y-80240295D02*
X83414285Y-80383152D01*
X83414285Y-80383152D02*
X83366666Y-80478390D01*
X83366666Y-80478390D02*
X83319047Y-80526009D01*
X83319047Y-80526009D02*
X83223809Y-80573628D01*
X83223809Y-80573628D02*
X82842857Y-80573628D01*
X83747619Y-80049819D02*
X84366666Y-80049819D01*
X84366666Y-80049819D02*
X84033333Y-80430771D01*
X84033333Y-80430771D02*
X84176190Y-80430771D01*
X84176190Y-80430771D02*
X84271428Y-80478390D01*
X84271428Y-80478390D02*
X84319047Y-80526009D01*
X84319047Y-80526009D02*
X84366666Y-80621247D01*
X84366666Y-80621247D02*
X84366666Y-80859342D01*
X84366666Y-80859342D02*
X84319047Y-80954580D01*
X84319047Y-80954580D02*
X84271428Y-81002200D01*
X84271428Y-81002200D02*
X84176190Y-81049819D01*
X84176190Y-81049819D02*
X83890476Y-81049819D01*
X83890476Y-81049819D02*
X83795238Y-81002200D01*
X83795238Y-81002200D02*
X83747619Y-80954580D01*
X66158809Y-111303628D02*
X66158809Y-111779819D01*
X65825476Y-110779819D02*
X66158809Y-111303628D01*
X66158809Y-111303628D02*
X66492142Y-110779819D01*
X67349285Y-111779819D02*
X66777857Y-111779819D01*
X67063571Y-111779819D02*
X67063571Y-110779819D01*
X67063571Y-110779819D02*
X66968333Y-110922676D01*
X66968333Y-110922676D02*
X66873095Y-111017914D01*
X66873095Y-111017914D02*
X66777857Y-111065533D01*
X59938095Y-43654819D02*
X59938095Y-42654819D01*
X59938095Y-43131009D02*
X60509523Y-43131009D01*
X60509523Y-43654819D02*
X60509523Y-42654819D01*
X60890476Y-42654819D02*
X61509523Y-42654819D01*
X61509523Y-42654819D02*
X61176190Y-43035771D01*
X61176190Y-43035771D02*
X61319047Y-43035771D01*
X61319047Y-43035771D02*
X61414285Y-43083390D01*
X61414285Y-43083390D02*
X61461904Y-43131009D01*
X61461904Y-43131009D02*
X61509523Y-43226247D01*
X61509523Y-43226247D02*
X61509523Y-43464342D01*
X61509523Y-43464342D02*
X61461904Y-43559580D01*
X61461904Y-43559580D02*
X61414285Y-43607200D01*
X61414285Y-43607200D02*
X61319047Y-43654819D01*
X61319047Y-43654819D02*
X61033333Y-43654819D01*
X61033333Y-43654819D02*
X60938095Y-43607200D01*
X60938095Y-43607200D02*
X60890476Y-43559580D01*
X123804819Y-101466666D02*
X123328628Y-101799999D01*
X123804819Y-102038094D02*
X122804819Y-102038094D01*
X122804819Y-102038094D02*
X122804819Y-101657142D01*
X122804819Y-101657142D02*
X122852438Y-101561904D01*
X122852438Y-101561904D02*
X122900057Y-101514285D01*
X122900057Y-101514285D02*
X122995295Y-101466666D01*
X122995295Y-101466666D02*
X123138152Y-101466666D01*
X123138152Y-101466666D02*
X123233390Y-101514285D01*
X123233390Y-101514285D02*
X123281009Y-101561904D01*
X123281009Y-101561904D02*
X123328628Y-101657142D01*
X123328628Y-101657142D02*
X123328628Y-102038094D01*
X123804819Y-100514285D02*
X123804819Y-101085713D01*
X123804819Y-100799999D02*
X122804819Y-100799999D01*
X122804819Y-100799999D02*
X122947676Y-100895237D01*
X122947676Y-100895237D02*
X123042914Y-100990475D01*
X123042914Y-100990475D02*
X123090533Y-101085713D01*
D11*
%TO.C,U2*%
X85210000Y-53585000D02*
X85210000Y-79225000D01*
X85210000Y-79225000D02*
X95710000Y-79225000D01*
X88210000Y-53645000D02*
X88210000Y-79165000D01*
X88210000Y-79165000D02*
X92710000Y-79165000D01*
X89460000Y-53645000D02*
X88210000Y-53645000D01*
X92710000Y-53645000D02*
X91460000Y-53645000D01*
X92710000Y-79165000D02*
X92710000Y-53645000D01*
X95710000Y-53585000D02*
X85210000Y-53585000D01*
X95710000Y-79225000D02*
X95710000Y-53585000D01*
X89460000Y-53645000D02*
G75*
G03*
X91460000Y-53645000I1000000J0D01*
G01*
%TO.C,JP2*%
X92270000Y-81540000D02*
X93600000Y-81540000D01*
X92270000Y-82870000D02*
X92270000Y-81540000D01*
X92270000Y-84140000D02*
X92270000Y-89280000D01*
X92270000Y-84140000D02*
X94930000Y-84140000D01*
X92270000Y-89280000D02*
X94930000Y-89280000D01*
X94930000Y-84140000D02*
X94930000Y-89280000D01*
%TO.C,U1*%
X59660000Y-53610000D02*
X59660000Y-104650000D01*
X59660000Y-104650000D02*
X77780000Y-104650000D01*
X62660000Y-53670000D02*
X62660000Y-104590000D01*
X62660000Y-104590000D02*
X74780000Y-104590000D01*
X67720000Y-53670000D02*
X62660000Y-53670000D01*
X74780000Y-53670000D02*
X69720000Y-53670000D01*
X74780000Y-104590000D02*
X74780000Y-53670000D01*
X77780000Y-53610000D02*
X59660000Y-53610000D01*
X77780000Y-104650000D02*
X77780000Y-53610000D01*
X67720000Y-53670000D02*
G75*
G03*
X69720000Y-53670000I1000000J0D01*
G01*
%TO.C,JP4*%
X96070000Y-81540000D02*
X97400000Y-81540000D01*
X96070000Y-82870000D02*
X96070000Y-81540000D01*
X96070000Y-84140000D02*
X96070000Y-89280000D01*
X96070000Y-84140000D02*
X98730000Y-84140000D01*
X96070000Y-89280000D02*
X98730000Y-89280000D01*
X98730000Y-84140000D02*
X98730000Y-89280000D01*
%TO.C,U6*%
X135200000Y-94060000D02*
X137000000Y-94060000D01*
X135200000Y-94060000D02*
X134400000Y-94060000D01*
X135200000Y-90940000D02*
X136000000Y-90940000D01*
X135200000Y-90940000D02*
X134400000Y-90940000D01*
%TO.C,U4*%
X138815000Y-89365000D02*
X138815000Y-53565000D01*
X138815000Y-53565000D02*
X120695000Y-53565000D01*
X135815000Y-89305000D02*
X135815000Y-53625000D01*
X135815000Y-53625000D02*
X123695000Y-53625000D01*
X130755000Y-89305000D02*
X135815000Y-89305000D01*
X123695000Y-89305000D02*
X128755000Y-89305000D01*
X123695000Y-53625000D02*
X123695000Y-89305000D01*
X120695000Y-89365000D02*
X138815000Y-89365000D01*
X120695000Y-53565000D02*
X120695000Y-89365000D01*
X130755000Y-89305000D02*
G75*
G03*
X128755000Y-89305000I-1000000J0D01*
G01*
%TO.C,J3*%
X143670000Y-53610000D02*
X145000000Y-53610000D01*
X143670000Y-54940000D02*
X143670000Y-53610000D01*
X143670000Y-56210000D02*
X143670000Y-104530000D01*
X143670000Y-56210000D02*
X146330000Y-56210000D01*
X143670000Y-104530000D02*
X146330000Y-104530000D01*
X146330000Y-56210000D02*
X146330000Y-104530000D01*
%TO.C,U10*%
X129337500Y-94060000D02*
X131137500Y-94060000D01*
X129337500Y-94060000D02*
X128537500Y-94060000D01*
X129337500Y-90940000D02*
X130137500Y-90940000D01*
X129337500Y-90940000D02*
X128537500Y-90940000D01*
%TO.C,U7*%
X138295000Y-98775000D02*
X138295000Y-95325000D01*
X138295000Y-98775000D02*
X138295000Y-100725000D01*
X128175000Y-98775000D02*
X128175000Y-96825000D01*
X128175000Y-98775000D02*
X128175000Y-100725000D01*
%TO.C,J2*%
X54670000Y-53620000D02*
X56000000Y-53620000D01*
X54670000Y-54950000D02*
X54670000Y-53620000D01*
X54670000Y-56220000D02*
X54670000Y-104540000D01*
X54670000Y-56220000D02*
X57330000Y-56220000D01*
X54670000Y-104540000D02*
X57330000Y-104540000D01*
X57330000Y-56220000D02*
X57330000Y-104540000D01*
%TO.C,J1*%
X76670000Y-111330000D02*
X76670000Y-110000000D01*
X78000000Y-111330000D02*
X76670000Y-111330000D01*
X79270000Y-111330000D02*
X140290000Y-111330000D01*
X79270000Y-111330000D02*
X79270000Y-108730000D01*
X140290000Y-111330000D02*
X140290000Y-106130000D01*
X76670000Y-108730000D02*
X76670000Y-106130000D01*
X79270000Y-108730000D02*
X76670000Y-108730000D01*
X76670000Y-106130000D02*
X140290000Y-106130000D01*
%TO.C,JP1*%
X85670000Y-81580000D02*
X87000000Y-81580000D01*
X85670000Y-82910000D02*
X85670000Y-81580000D01*
X85670000Y-84180000D02*
X85670000Y-89320000D01*
X85670000Y-84180000D02*
X88330000Y-84180000D01*
X85670000Y-89320000D02*
X88330000Y-89320000D01*
X88330000Y-84180000D02*
X88330000Y-89320000D01*
%TO.C,RN1*%
X82800000Y-53585000D02*
X80000000Y-53585000D01*
X80000000Y-53585000D02*
X80000000Y-76785000D01*
X82800000Y-56295000D02*
X80000000Y-56295000D01*
X82800000Y-76785000D02*
X82800000Y-53585000D01*
X80000000Y-76785000D02*
X82800000Y-76785000D01*
%TO.C,U3*%
X117515000Y-89365000D02*
X117515000Y-53565000D01*
X117515000Y-53565000D02*
X99395000Y-53565000D01*
X114515000Y-89305000D02*
X114515000Y-53625000D01*
X114515000Y-53625000D02*
X102395000Y-53625000D01*
X109455000Y-89305000D02*
X114515000Y-89305000D01*
X102395000Y-89305000D02*
X107455000Y-89305000D01*
X102395000Y-53625000D02*
X102395000Y-89305000D01*
X99395000Y-89365000D02*
X117515000Y-89365000D01*
X99395000Y-53565000D02*
X99395000Y-89365000D01*
X109455000Y-89305000D02*
G75*
G03*
X107455000Y-89305000I-1000000J0D01*
G01*
%TO.C,JP3*%
X81870000Y-81595000D02*
X83200000Y-81595000D01*
X81870000Y-82925000D02*
X81870000Y-81595000D01*
X81870000Y-84195000D02*
X81870000Y-89335000D01*
X81870000Y-84195000D02*
X84530000Y-84195000D01*
X81870000Y-89335000D02*
X84530000Y-89335000D01*
X84530000Y-84195000D02*
X84530000Y-89335000D01*
%TO.C,Y1*%
X69760000Y-110325000D02*
X63510000Y-110325000D01*
X69760000Y-105275000D02*
X63510000Y-105275000D01*
X69760000Y-110325000D02*
G75*
G03*
X69760000Y-105275000I0J2525000D01*
G01*
X63510000Y-105275000D02*
G75*
G03*
X63510000Y-110325000I0J-2525000D01*
G01*
%TO.C,R1*%
X124265000Y-101527064D02*
X124265000Y-101072936D01*
X125735000Y-101527064D02*
X125735000Y-101072936D01*
%TD*%
M02*
