%TF.GenerationSoftware,KiCad,Pcbnew,7.0.7*%
%TF.CreationDate,2023-10-02T10:19:24+01:00*%
%TF.ProjectId,8052-MCU,38303532-2d4d-4435-952e-6b696361645f,0.1*%
%TF.SameCoordinates,Original*%
%TF.FileFunction,Legend,Bot*%
%TF.FilePolarity,Positive*%
%FSLAX46Y46*%
G04 Gerber Fmt 4.6, Leading zero omitted, Abs format (unit mm)*
G04 Created by KiCad (PCBNEW 7.0.7) date 2023-10-02 10:19:24*
%MOMM*%
%LPD*%
G01*
G04 APERTURE LIST*
%ADD10C,0.150000*%
%ADD11C,0.120000*%
G04 APERTURE END LIST*
D10*
X132359580Y-91557142D02*
X132407200Y-91509523D01*
X132407200Y-91509523D02*
X132454819Y-91366666D01*
X132454819Y-91366666D02*
X132454819Y-91271428D01*
X132454819Y-91271428D02*
X132407200Y-91128571D01*
X132407200Y-91128571D02*
X132311961Y-91033333D01*
X132311961Y-91033333D02*
X132216723Y-90985714D01*
X132216723Y-90985714D02*
X132026247Y-90938095D01*
X132026247Y-90938095D02*
X131883390Y-90938095D01*
X131883390Y-90938095D02*
X131692914Y-90985714D01*
X131692914Y-90985714D02*
X131597676Y-91033333D01*
X131597676Y-91033333D02*
X131502438Y-91128571D01*
X131502438Y-91128571D02*
X131454819Y-91271428D01*
X131454819Y-91271428D02*
X131454819Y-91366666D01*
X131454819Y-91366666D02*
X131502438Y-91509523D01*
X131502438Y-91509523D02*
X131550057Y-91557142D01*
X132454819Y-92509523D02*
X132454819Y-91938095D01*
X132454819Y-92223809D02*
X131454819Y-92223809D01*
X131454819Y-92223809D02*
X131597676Y-92128571D01*
X131597676Y-92128571D02*
X131692914Y-92033333D01*
X131692914Y-92033333D02*
X131740533Y-91938095D01*
X131454819Y-93128571D02*
X131454819Y-93223809D01*
X131454819Y-93223809D02*
X131502438Y-93319047D01*
X131502438Y-93319047D02*
X131550057Y-93366666D01*
X131550057Y-93366666D02*
X131645295Y-93414285D01*
X131645295Y-93414285D02*
X131835771Y-93461904D01*
X131835771Y-93461904D02*
X132073866Y-93461904D01*
X132073866Y-93461904D02*
X132264342Y-93414285D01*
X132264342Y-93414285D02*
X132359580Y-93366666D01*
X132359580Y-93366666D02*
X132407200Y-93319047D01*
X132407200Y-93319047D02*
X132454819Y-93223809D01*
X132454819Y-93223809D02*
X132454819Y-93128571D01*
X132454819Y-93128571D02*
X132407200Y-93033333D01*
X132407200Y-93033333D02*
X132359580Y-92985714D01*
X132359580Y-92985714D02*
X132264342Y-92938095D01*
X132264342Y-92938095D02*
X132073866Y-92890476D01*
X132073866Y-92890476D02*
X131835771Y-92890476D01*
X131835771Y-92890476D02*
X131645295Y-92938095D01*
X131645295Y-92938095D02*
X131550057Y-92985714D01*
X131550057Y-92985714D02*
X131502438Y-93033333D01*
X131502438Y-93033333D02*
X131454819Y-93128571D01*
X69738094Y-79474819D02*
X69738094Y-80284342D01*
X69738094Y-80284342D02*
X69690475Y-80379580D01*
X69690475Y-80379580D02*
X69642856Y-80427200D01*
X69642856Y-80427200D02*
X69547618Y-80474819D01*
X69547618Y-80474819D02*
X69357142Y-80474819D01*
X69357142Y-80474819D02*
X69261904Y-80427200D01*
X69261904Y-80427200D02*
X69214285Y-80379580D01*
X69214285Y-80379580D02*
X69166666Y-80284342D01*
X69166666Y-80284342D02*
X69166666Y-79474819D01*
X68166666Y-80474819D02*
X68738094Y-80474819D01*
X68452380Y-80474819D02*
X68452380Y-79474819D01*
X68452380Y-79474819D02*
X68547618Y-79617676D01*
X68547618Y-79617676D02*
X68642856Y-79712914D01*
X68642856Y-79712914D02*
X68738094Y-79760533D01*
X67214285Y-80474819D02*
X67785713Y-80474819D01*
X67499999Y-80474819D02*
X67499999Y-79474819D01*
X67499999Y-79474819D02*
X67595237Y-79617676D01*
X67595237Y-79617676D02*
X67690475Y-79712914D01*
X67690475Y-79712914D02*
X67785713Y-79760533D01*
X140139580Y-101557142D02*
X140187200Y-101509523D01*
X140187200Y-101509523D02*
X140234819Y-101366666D01*
X140234819Y-101366666D02*
X140234819Y-101271428D01*
X140234819Y-101271428D02*
X140187200Y-101128571D01*
X140187200Y-101128571D02*
X140091961Y-101033333D01*
X140091961Y-101033333D02*
X139996723Y-100985714D01*
X139996723Y-100985714D02*
X139806247Y-100938095D01*
X139806247Y-100938095D02*
X139663390Y-100938095D01*
X139663390Y-100938095D02*
X139472914Y-100985714D01*
X139472914Y-100985714D02*
X139377676Y-101033333D01*
X139377676Y-101033333D02*
X139282438Y-101128571D01*
X139282438Y-101128571D02*
X139234819Y-101271428D01*
X139234819Y-101271428D02*
X139234819Y-101366666D01*
X139234819Y-101366666D02*
X139282438Y-101509523D01*
X139282438Y-101509523D02*
X139330057Y-101557142D01*
X140234819Y-102509523D02*
X140234819Y-101938095D01*
X140234819Y-102223809D02*
X139234819Y-102223809D01*
X139234819Y-102223809D02*
X139377676Y-102128571D01*
X139377676Y-102128571D02*
X139472914Y-102033333D01*
X139472914Y-102033333D02*
X139520533Y-101938095D01*
X140234819Y-103461904D02*
X140234819Y-102890476D01*
X140234819Y-103176190D02*
X139234819Y-103176190D01*
X139234819Y-103176190D02*
X139377676Y-103080952D01*
X139377676Y-103080952D02*
X139472914Y-102985714D01*
X139472914Y-102985714D02*
X139520533Y-102890476D01*
X61741666Y-109589580D02*
X61789285Y-109637200D01*
X61789285Y-109637200D02*
X61932142Y-109684819D01*
X61932142Y-109684819D02*
X62027380Y-109684819D01*
X62027380Y-109684819D02*
X62170237Y-109637200D01*
X62170237Y-109637200D02*
X62265475Y-109541961D01*
X62265475Y-109541961D02*
X62313094Y-109446723D01*
X62313094Y-109446723D02*
X62360713Y-109256247D01*
X62360713Y-109256247D02*
X62360713Y-109113390D01*
X62360713Y-109113390D02*
X62313094Y-108922914D01*
X62313094Y-108922914D02*
X62265475Y-108827676D01*
X62265475Y-108827676D02*
X62170237Y-108732438D01*
X62170237Y-108732438D02*
X62027380Y-108684819D01*
X62027380Y-108684819D02*
X61932142Y-108684819D01*
X61932142Y-108684819D02*
X61789285Y-108732438D01*
X61789285Y-108732438D02*
X61741666Y-108780057D01*
X61408332Y-108684819D02*
X60789285Y-108684819D01*
X60789285Y-108684819D02*
X61122618Y-109065771D01*
X61122618Y-109065771D02*
X60979761Y-109065771D01*
X60979761Y-109065771D02*
X60884523Y-109113390D01*
X60884523Y-109113390D02*
X60836904Y-109161009D01*
X60836904Y-109161009D02*
X60789285Y-109256247D01*
X60789285Y-109256247D02*
X60789285Y-109494342D01*
X60789285Y-109494342D02*
X60836904Y-109589580D01*
X60836904Y-109589580D02*
X60884523Y-109637200D01*
X60884523Y-109637200D02*
X60979761Y-109684819D01*
X60979761Y-109684819D02*
X61265475Y-109684819D01*
X61265475Y-109684819D02*
X61360713Y-109637200D01*
X61360713Y-109637200D02*
X61408332Y-109589580D01*
X120366666Y-91159580D02*
X120414285Y-91207200D01*
X120414285Y-91207200D02*
X120557142Y-91254819D01*
X120557142Y-91254819D02*
X120652380Y-91254819D01*
X120652380Y-91254819D02*
X120795237Y-91207200D01*
X120795237Y-91207200D02*
X120890475Y-91111961D01*
X120890475Y-91111961D02*
X120938094Y-91016723D01*
X120938094Y-91016723D02*
X120985713Y-90826247D01*
X120985713Y-90826247D02*
X120985713Y-90683390D01*
X120985713Y-90683390D02*
X120938094Y-90492914D01*
X120938094Y-90492914D02*
X120890475Y-90397676D01*
X120890475Y-90397676D02*
X120795237Y-90302438D01*
X120795237Y-90302438D02*
X120652380Y-90254819D01*
X120652380Y-90254819D02*
X120557142Y-90254819D01*
X120557142Y-90254819D02*
X120414285Y-90302438D01*
X120414285Y-90302438D02*
X120366666Y-90350057D01*
X119509523Y-90254819D02*
X119699999Y-90254819D01*
X119699999Y-90254819D02*
X119795237Y-90302438D01*
X119795237Y-90302438D02*
X119842856Y-90350057D01*
X119842856Y-90350057D02*
X119938094Y-90492914D01*
X119938094Y-90492914D02*
X119985713Y-90683390D01*
X119985713Y-90683390D02*
X119985713Y-91064342D01*
X119985713Y-91064342D02*
X119938094Y-91159580D01*
X119938094Y-91159580D02*
X119890475Y-91207200D01*
X119890475Y-91207200D02*
X119795237Y-91254819D01*
X119795237Y-91254819D02*
X119604761Y-91254819D01*
X119604761Y-91254819D02*
X119509523Y-91207200D01*
X119509523Y-91207200D02*
X119461904Y-91159580D01*
X119461904Y-91159580D02*
X119414285Y-91064342D01*
X119414285Y-91064342D02*
X119414285Y-90826247D01*
X119414285Y-90826247D02*
X119461904Y-90731009D01*
X119461904Y-90731009D02*
X119509523Y-90683390D01*
X119509523Y-90683390D02*
X119604761Y-90635771D01*
X119604761Y-90635771D02*
X119795237Y-90635771D01*
X119795237Y-90635771D02*
X119890475Y-90683390D01*
X119890475Y-90683390D02*
X119938094Y-90731009D01*
X119938094Y-90731009D02*
X119985713Y-90826247D01*
X71841666Y-106729580D02*
X71889285Y-106777200D01*
X71889285Y-106777200D02*
X72032142Y-106824819D01*
X72032142Y-106824819D02*
X72127380Y-106824819D01*
X72127380Y-106824819D02*
X72270237Y-106777200D01*
X72270237Y-106777200D02*
X72365475Y-106681961D01*
X72365475Y-106681961D02*
X72413094Y-106586723D01*
X72413094Y-106586723D02*
X72460713Y-106396247D01*
X72460713Y-106396247D02*
X72460713Y-106253390D01*
X72460713Y-106253390D02*
X72413094Y-106062914D01*
X72413094Y-106062914D02*
X72365475Y-105967676D01*
X72365475Y-105967676D02*
X72270237Y-105872438D01*
X72270237Y-105872438D02*
X72127380Y-105824819D01*
X72127380Y-105824819D02*
X72032142Y-105824819D01*
X72032142Y-105824819D02*
X71889285Y-105872438D01*
X71889285Y-105872438D02*
X71841666Y-105920057D01*
X70984523Y-106158152D02*
X70984523Y-106824819D01*
X71222618Y-105777200D02*
X71460713Y-106491485D01*
X71460713Y-106491485D02*
X70841666Y-106491485D01*
X93566666Y-50859580D02*
X93614285Y-50907200D01*
X93614285Y-50907200D02*
X93757142Y-50954819D01*
X93757142Y-50954819D02*
X93852380Y-50954819D01*
X93852380Y-50954819D02*
X93995237Y-50907200D01*
X93995237Y-50907200D02*
X94090475Y-50811961D01*
X94090475Y-50811961D02*
X94138094Y-50716723D01*
X94138094Y-50716723D02*
X94185713Y-50526247D01*
X94185713Y-50526247D02*
X94185713Y-50383390D01*
X94185713Y-50383390D02*
X94138094Y-50192914D01*
X94138094Y-50192914D02*
X94090475Y-50097676D01*
X94090475Y-50097676D02*
X93995237Y-50002438D01*
X93995237Y-50002438D02*
X93852380Y-49954819D01*
X93852380Y-49954819D02*
X93757142Y-49954819D01*
X93757142Y-49954819D02*
X93614285Y-50002438D01*
X93614285Y-50002438D02*
X93566666Y-50050057D01*
X93185713Y-50050057D02*
X93138094Y-50002438D01*
X93138094Y-50002438D02*
X93042856Y-49954819D01*
X93042856Y-49954819D02*
X92804761Y-49954819D01*
X92804761Y-49954819D02*
X92709523Y-50002438D01*
X92709523Y-50002438D02*
X92661904Y-50050057D01*
X92661904Y-50050057D02*
X92614285Y-50145295D01*
X92614285Y-50145295D02*
X92614285Y-50240533D01*
X92614285Y-50240533D02*
X92661904Y-50383390D01*
X92661904Y-50383390D02*
X93233332Y-50954819D01*
X93233332Y-50954819D02*
X92614285Y-50954819D01*
X126742857Y-95839580D02*
X126790476Y-95887200D01*
X126790476Y-95887200D02*
X126933333Y-95934819D01*
X126933333Y-95934819D02*
X127028571Y-95934819D01*
X127028571Y-95934819D02*
X127171428Y-95887200D01*
X127171428Y-95887200D02*
X127266666Y-95791961D01*
X127266666Y-95791961D02*
X127314285Y-95696723D01*
X127314285Y-95696723D02*
X127361904Y-95506247D01*
X127361904Y-95506247D02*
X127361904Y-95363390D01*
X127361904Y-95363390D02*
X127314285Y-95172914D01*
X127314285Y-95172914D02*
X127266666Y-95077676D01*
X127266666Y-95077676D02*
X127171428Y-94982438D01*
X127171428Y-94982438D02*
X127028571Y-94934819D01*
X127028571Y-94934819D02*
X126933333Y-94934819D01*
X126933333Y-94934819D02*
X126790476Y-94982438D01*
X126790476Y-94982438D02*
X126742857Y-95030057D01*
X125790476Y-95934819D02*
X126361904Y-95934819D01*
X126076190Y-95934819D02*
X126076190Y-94934819D01*
X126076190Y-94934819D02*
X126171428Y-95077676D01*
X126171428Y-95077676D02*
X126266666Y-95172914D01*
X126266666Y-95172914D02*
X126361904Y-95220533D01*
X125409523Y-95030057D02*
X125361904Y-94982438D01*
X125361904Y-94982438D02*
X125266666Y-94934819D01*
X125266666Y-94934819D02*
X125028571Y-94934819D01*
X125028571Y-94934819D02*
X124933333Y-94982438D01*
X124933333Y-94982438D02*
X124885714Y-95030057D01*
X124885714Y-95030057D02*
X124838095Y-95125295D01*
X124838095Y-95125295D02*
X124838095Y-95220533D01*
X124838095Y-95220533D02*
X124885714Y-95363390D01*
X124885714Y-95363390D02*
X125457142Y-95934819D01*
X125457142Y-95934819D02*
X124838095Y-95934819D01*
X75566666Y-51009580D02*
X75614285Y-51057200D01*
X75614285Y-51057200D02*
X75757142Y-51104819D01*
X75757142Y-51104819D02*
X75852380Y-51104819D01*
X75852380Y-51104819D02*
X75995237Y-51057200D01*
X75995237Y-51057200D02*
X76090475Y-50961961D01*
X76090475Y-50961961D02*
X76138094Y-50866723D01*
X76138094Y-50866723D02*
X76185713Y-50676247D01*
X76185713Y-50676247D02*
X76185713Y-50533390D01*
X76185713Y-50533390D02*
X76138094Y-50342914D01*
X76138094Y-50342914D02*
X76090475Y-50247676D01*
X76090475Y-50247676D02*
X75995237Y-50152438D01*
X75995237Y-50152438D02*
X75852380Y-50104819D01*
X75852380Y-50104819D02*
X75757142Y-50104819D01*
X75757142Y-50104819D02*
X75614285Y-50152438D01*
X75614285Y-50152438D02*
X75566666Y-50200057D01*
X74614285Y-51104819D02*
X75185713Y-51104819D01*
X74899999Y-51104819D02*
X74899999Y-50104819D01*
X74899999Y-50104819D02*
X74995237Y-50247676D01*
X74995237Y-50247676D02*
X75090475Y-50342914D01*
X75090475Y-50342914D02*
X75185713Y-50390533D01*
X100066666Y-92539580D02*
X100114285Y-92587200D01*
X100114285Y-92587200D02*
X100257142Y-92634819D01*
X100257142Y-92634819D02*
X100352380Y-92634819D01*
X100352380Y-92634819D02*
X100495237Y-92587200D01*
X100495237Y-92587200D02*
X100590475Y-92491961D01*
X100590475Y-92491961D02*
X100638094Y-92396723D01*
X100638094Y-92396723D02*
X100685713Y-92206247D01*
X100685713Y-92206247D02*
X100685713Y-92063390D01*
X100685713Y-92063390D02*
X100638094Y-91872914D01*
X100638094Y-91872914D02*
X100590475Y-91777676D01*
X100590475Y-91777676D02*
X100495237Y-91682438D01*
X100495237Y-91682438D02*
X100352380Y-91634819D01*
X100352380Y-91634819D02*
X100257142Y-91634819D01*
X100257142Y-91634819D02*
X100114285Y-91682438D01*
X100114285Y-91682438D02*
X100066666Y-91730057D01*
X99161904Y-91634819D02*
X99638094Y-91634819D01*
X99638094Y-91634819D02*
X99685713Y-92111009D01*
X99685713Y-92111009D02*
X99638094Y-92063390D01*
X99638094Y-92063390D02*
X99542856Y-92015771D01*
X99542856Y-92015771D02*
X99304761Y-92015771D01*
X99304761Y-92015771D02*
X99209523Y-92063390D01*
X99209523Y-92063390D02*
X99161904Y-92111009D01*
X99161904Y-92111009D02*
X99114285Y-92206247D01*
X99114285Y-92206247D02*
X99114285Y-92444342D01*
X99114285Y-92444342D02*
X99161904Y-92539580D01*
X99161904Y-92539580D02*
X99209523Y-92587200D01*
X99209523Y-92587200D02*
X99304761Y-92634819D01*
X99304761Y-92634819D02*
X99542856Y-92634819D01*
X99542856Y-92634819D02*
X99638094Y-92587200D01*
X99638094Y-92587200D02*
X99685713Y-92539580D01*
D11*
%TO.C,C10*%
X134735000Y-92038748D02*
X134735000Y-92561252D01*
X133265000Y-92038748D02*
X133265000Y-92561252D01*
%TO.C,U11*%
X68500000Y-89735000D02*
X70450000Y-89735000D01*
X68500000Y-89735000D02*
X66550000Y-89735000D01*
X68500000Y-80865000D02*
X71950000Y-80865000D01*
X68500000Y-80865000D02*
X66550000Y-80865000D01*
%TO.C,C11*%
X137365000Y-102461252D02*
X137365000Y-101938748D01*
X138835000Y-102461252D02*
X138835000Y-101938748D01*
%TO.C,C3*%
X61434420Y-107290000D02*
X61715580Y-107290000D01*
X61434420Y-108310000D02*
X61715580Y-108310000D01*
%TO.C,C6*%
X123361252Y-91635000D02*
X122838748Y-91635000D01*
X123361252Y-90165000D02*
X122838748Y-90165000D01*
%TO.C,C4*%
X71815580Y-108310000D02*
X71534420Y-108310000D01*
X71815580Y-107290000D02*
X71534420Y-107290000D01*
%TO.C,C2*%
X93088748Y-51515000D02*
X93611252Y-51515000D01*
X93088748Y-52985000D02*
X93611252Y-52985000D01*
%TO.C,C12*%
X125838748Y-93065000D02*
X126361252Y-93065000D01*
X125838748Y-94535000D02*
X126361252Y-94535000D01*
%TO.C,C1*%
X75138748Y-51515000D02*
X75661252Y-51515000D01*
X75138748Y-52985000D02*
X75661252Y-52985000D01*
%TO.C,C5*%
X99638748Y-89765000D02*
X100161252Y-89765000D01*
X99638748Y-91235000D02*
X100161252Y-91235000D01*
%TD*%
M02*
