%TF.GenerationSoftware,KiCad,Pcbnew,7.0.7*%
%TF.CreationDate,2023-10-02T10:19:24+01:00*%
%TF.ProjectId,8052-MCU,38303532-2d4d-4435-952e-6b696361645f,0.1*%
%TF.SameCoordinates,Original*%
%TF.FileFunction,Copper,L1,Top*%
%TF.FilePolarity,Positive*%
%FSLAX46Y46*%
G04 Gerber Fmt 4.6, Leading zero omitted, Abs format (unit mm)*
G04 Created by KiCad (PCBNEW 7.0.7) date 2023-10-02 10:19:24*
%MOMM*%
%LPD*%
G01*
G04 APERTURE LIST*
G04 Aperture macros list*
%AMRoundRect*
0 Rectangle with rounded corners*
0 $1 Rounding radius*
0 $2 $3 $4 $5 $6 $7 $8 $9 X,Y pos of 4 corners*
0 Add a 4 corners polygon primitive as box body*
4,1,4,$2,$3,$4,$5,$6,$7,$8,$9,$2,$3,0*
0 Add four circle primitives for the rounded corners*
1,1,$1+$1,$2,$3*
1,1,$1+$1,$4,$5*
1,1,$1+$1,$6,$7*
1,1,$1+$1,$8,$9*
0 Add four rect primitives between the rounded corners*
20,1,$1+$1,$2,$3,$4,$5,0*
20,1,$1+$1,$4,$5,$6,$7,0*
20,1,$1+$1,$6,$7,$8,$9,0*
20,1,$1+$1,$8,$9,$2,$3,0*%
G04 Aperture macros list end*
%TA.AperFunction,ComponentPad*%
%ADD10R,2.400000X1.600000*%
%TD*%
%TA.AperFunction,ComponentPad*%
%ADD11O,2.400000X1.600000*%
%TD*%
%TA.AperFunction,ComponentPad*%
%ADD12R,1.700000X1.700000*%
%TD*%
%TA.AperFunction,ComponentPad*%
%ADD13O,1.700000X1.700000*%
%TD*%
%TA.AperFunction,SMDPad,CuDef*%
%ADD14RoundRect,0.150000X0.512500X0.150000X-0.512500X0.150000X-0.512500X-0.150000X0.512500X-0.150000X0*%
%TD*%
%TA.AperFunction,SMDPad,CuDef*%
%ADD15RoundRect,0.150000X-0.150000X0.825000X-0.150000X-0.825000X0.150000X-0.825000X0.150000X0.825000X0*%
%TD*%
%TA.AperFunction,ComponentPad*%
%ADD16R,1.600000X1.600000*%
%TD*%
%TA.AperFunction,ComponentPad*%
%ADD17O,1.600000X1.600000*%
%TD*%
%TA.AperFunction,ComponentPad*%
%ADD18C,1.500000*%
%TD*%
%TA.AperFunction,SMDPad,CuDef*%
%ADD19RoundRect,0.250000X0.450000X-0.262500X0.450000X0.262500X-0.450000X0.262500X-0.450000X-0.262500X0*%
%TD*%
%TA.AperFunction,ViaPad*%
%ADD20C,0.450000*%
%TD*%
%TA.AperFunction,ViaPad*%
%ADD21C,0.650000*%
%TD*%
%TA.AperFunction,Conductor*%
%ADD22C,0.200000*%
%TD*%
%TA.AperFunction,Conductor*%
%ADD23C,0.500000*%
%TD*%
G04 APERTURE END LIST*
D10*
%TO.P,U2,1,OE*%
%TO.N,GND*%
X86650000Y-54975000D03*
D11*
%TO.P,U2,2,D0*%
%TO.N,/D0*%
X86650000Y-57515000D03*
%TO.P,U2,3,D1*%
%TO.N,/D1*%
X86650000Y-60055000D03*
%TO.P,U2,4,D2*%
%TO.N,/D2*%
X86650000Y-62595000D03*
%TO.P,U2,5,D3*%
%TO.N,/D3*%
X86650000Y-65135000D03*
%TO.P,U2,6,D4*%
%TO.N,/D4*%
X86650000Y-67675000D03*
%TO.P,U2,7,D5*%
%TO.N,/D5*%
X86650000Y-70215000D03*
%TO.P,U2,8,D6*%
%TO.N,/D6*%
X86650000Y-72755000D03*
%TO.P,U2,9,D7*%
%TO.N,/D7*%
X86650000Y-75295000D03*
%TO.P,U2,10,GND*%
%TO.N,GND*%
X86650000Y-77835000D03*
%TO.P,U2,11,Load*%
%TO.N,/~{LD}*%
X94270000Y-77835000D03*
%TO.P,U2,12,Q7*%
%TO.N,/A7*%
X94270000Y-75295000D03*
%TO.P,U2,13,Q6*%
%TO.N,/A6*%
X94270000Y-72755000D03*
%TO.P,U2,14,Q5*%
%TO.N,/A5*%
X94270000Y-70215000D03*
%TO.P,U2,15,Q4*%
%TO.N,/A4*%
X94270000Y-67675000D03*
%TO.P,U2,16,Q3*%
%TO.N,/A3*%
X94270000Y-65135000D03*
%TO.P,U2,17,Q2*%
%TO.N,/A2*%
X94270000Y-62595000D03*
%TO.P,U2,18,Q1*%
%TO.N,/A1*%
X94270000Y-60055000D03*
%TO.P,U2,19,Q0*%
%TO.N,/A0*%
X94270000Y-57515000D03*
%TO.P,U2,20,VCC*%
%TO.N,+5V*%
X94270000Y-54975000D03*
%TD*%
D12*
%TO.P,JP2,1,A*%
%TO.N,/0000H*%
X93600000Y-82870000D03*
D13*
%TO.P,JP2,2,C*%
%TO.N,/~{RAM}*%
X93600000Y-85410000D03*
%TO.P,JP2,3,B*%
%TO.N,/A15*%
X93600000Y-87950000D03*
%TD*%
D10*
%TO.P,U1,1,P1.0*%
%TO.N,/P1.0*%
X61100000Y-55000000D03*
D11*
%TO.P,U1,2,P1.1*%
%TO.N,/P1.1*%
X61100000Y-57540000D03*
%TO.P,U1,3,P1.2*%
%TO.N,/P1.2{slash}PWM*%
X61100000Y-60080000D03*
%TO.P,U1,4,P1.3*%
%TO.N,/P1.3{slash}~{ALEDIS}*%
X61100000Y-62620000D03*
%TO.P,U1,5,P1.4*%
%TO.N,/P1.4{slash}~{PMGPULSE}*%
X61100000Y-65160000D03*
%TO.P,U1,6,P1.5*%
%TO.N,/P1.5{slash}~{PGMEN}*%
X61100000Y-67700000D03*
%TO.P,U1,7,P1.6*%
%TO.N,/P1.6{slash}~{DMA_ACK}*%
X61100000Y-70240000D03*
%TO.P,U1,8,P1.7*%
%TO.N,/P1.7{slash}~{LTP}*%
X61100000Y-72780000D03*
%TO.P,U1,9,RST/VPP*%
%TO.N,/RESET*%
X61100000Y-75320000D03*
%TO.P,U1,10,P3.0*%
%TO.N,/P3.0{slash}RXD*%
X61100000Y-77860000D03*
%TO.P,U1,11,P3.1*%
%TO.N,/P3.1{slash}TXD*%
X61100000Y-80400000D03*
%TO.P,U1,12,P3.2*%
%TO.N,/P3.2{slash}~{INT0}*%
X61100000Y-82940000D03*
%TO.P,U1,13,P3.3*%
%TO.N,/P3.3{slash}~{INT1}*%
X61100000Y-85480000D03*
%TO.P,U1,14,P3.4*%
%TO.N,/P3.4{slash}T0*%
X61100000Y-88020000D03*
%TO.P,U1,15,P3.5*%
%TO.N,/P3.5{slash}T1*%
X61100000Y-90560000D03*
%TO.P,U1,16,(~{WR})P3.6*%
%TO.N,/~{WR}*%
X61100000Y-93100000D03*
%TO.P,U1,17,(~{RD})P3.7*%
%TO.N,/~{RD}*%
X61100000Y-95640000D03*
%TO.P,U1,18,XTAL2*%
%TO.N,Net-(U1-XTAL2)*%
X61100000Y-98180000D03*
%TO.P,U1,19,XTAL1*%
%TO.N,Net-(U1-XTAL1)*%
X61100000Y-100720000D03*
%TO.P,U1,20,GND*%
%TO.N,GND*%
X61100000Y-103260000D03*
%TO.P,U1,21,P2.0*%
%TO.N,/A8*%
X76340000Y-103260000D03*
%TO.P,U1,22,P2.1*%
%TO.N,/A9*%
X76340000Y-100720000D03*
%TO.P,U1,23,P2.2*%
%TO.N,/A10*%
X76340000Y-98180000D03*
%TO.P,U1,24,P2.3*%
%TO.N,/A11*%
X76340000Y-95640000D03*
%TO.P,U1,25,P2.4*%
%TO.N,/A12*%
X76340000Y-93100000D03*
%TO.P,U1,26,P2.5*%
%TO.N,/A13*%
X76340000Y-90560000D03*
%TO.P,U1,27,P2.6*%
%TO.N,/A14*%
X76340000Y-88020000D03*
%TO.P,U1,28,P2.7*%
%TO.N,/A15*%
X76340000Y-85480000D03*
%TO.P,U1,29,~{PSEN}*%
%TO.N,/~{PSEN}*%
X76340000Y-82940000D03*
%TO.P,U1,30,ALE/~{PROG}*%
%TO.N,/ALE*%
X76340000Y-80400000D03*
%TO.P,U1,31,~{EA}/VPP*%
%TO.N,/~{EA}*%
X76340000Y-77860000D03*
%TO.P,U1,32,P0.7*%
%TO.N,/D7*%
X76340000Y-75320000D03*
%TO.P,U1,33,P0.6*%
%TO.N,/D6*%
X76340000Y-72780000D03*
%TO.P,U1,34,P0.5*%
%TO.N,/D5*%
X76340000Y-70240000D03*
%TO.P,U1,35,P0.4*%
%TO.N,/D4*%
X76340000Y-67700000D03*
%TO.P,U1,36,P0.3*%
%TO.N,/D3*%
X76340000Y-65160000D03*
%TO.P,U1,37,P0.2*%
%TO.N,/D2*%
X76340000Y-62620000D03*
%TO.P,U1,38,P0.1*%
%TO.N,/D1*%
X76340000Y-60080000D03*
%TO.P,U1,39,P0.0*%
%TO.N,/D0*%
X76340000Y-57540000D03*
%TO.P,U1,40,VCC*%
%TO.N,+5V*%
X76340000Y-55000000D03*
%TD*%
D12*
%TO.P,JP4,1,A*%
%TO.N,+5V*%
X97400000Y-82870000D03*
D13*
%TO.P,JP4,2,C*%
%TO.N,/A13{slash}RAM*%
X97400000Y-85410000D03*
%TO.P,JP4,3,B*%
%TO.N,/A13*%
X97400000Y-87950000D03*
%TD*%
D14*
%TO.P,U6,1*%
%TO.N,/0000H*%
X136337500Y-93450000D03*
%TO.P,U6,2*%
%TO.N,/RESET*%
X136337500Y-92500000D03*
%TO.P,U6,3,GND*%
%TO.N,GND*%
X136337500Y-91550000D03*
%TO.P,U6,4*%
%TO.N,/CS_EX_ROM*%
X134062500Y-91550000D03*
%TO.P,U6,5,VCC*%
%TO.N,+5V*%
X134062500Y-93450000D03*
%TD*%
D10*
%TO.P,U4,1,A14*%
%TO.N,/A14*%
X137375000Y-87975000D03*
D11*
%TO.P,U4,2,A12*%
%TO.N,/A12*%
X137375000Y-85435000D03*
%TO.P,U4,3,A7*%
%TO.N,/A7*%
X137375000Y-82895000D03*
%TO.P,U4,4,A6*%
%TO.N,/A6*%
X137375000Y-80355000D03*
%TO.P,U4,5,A5*%
%TO.N,/A5*%
X137375000Y-77815000D03*
%TO.P,U4,6,A4*%
%TO.N,/A4*%
X137375000Y-75275000D03*
%TO.P,U4,7,A3*%
%TO.N,/A3*%
X137375000Y-72735000D03*
%TO.P,U4,8,A2*%
%TO.N,/A2*%
X137375000Y-70195000D03*
%TO.P,U4,9,A1*%
%TO.N,/A1*%
X137375000Y-67655000D03*
%TO.P,U4,10,A0*%
%TO.N,/A0*%
X137375000Y-65115000D03*
%TO.P,U4,11,D0*%
%TO.N,/D0*%
X137375000Y-62575000D03*
%TO.P,U4,12,D1*%
%TO.N,/D1*%
X137375000Y-60035000D03*
%TO.P,U4,13,D2*%
%TO.N,/D2*%
X137375000Y-57495000D03*
%TO.P,U4,14,GND*%
%TO.N,GND*%
X137375000Y-54955000D03*
%TO.P,U4,15,D3*%
%TO.N,/D3*%
X122135000Y-54955000D03*
%TO.P,U4,16,D4*%
%TO.N,/D4*%
X122135000Y-57495000D03*
%TO.P,U4,17,D5*%
%TO.N,/D5*%
X122135000Y-60035000D03*
%TO.P,U4,18,D6*%
%TO.N,/D6*%
X122135000Y-62575000D03*
%TO.P,U4,19,D7*%
%TO.N,/D7*%
X122135000Y-65115000D03*
%TO.P,U4,20,~{CE}*%
%TO.N,/~{NVRAM}*%
X122135000Y-67655000D03*
%TO.P,U4,21,A10*%
%TO.N,/A10*%
X122135000Y-70195000D03*
%TO.P,U4,22,~{OE}*%
%TO.N,/RD_ANY*%
X122135000Y-72735000D03*
%TO.P,U4,23,A11*%
%TO.N,/A11*%
X122135000Y-75275000D03*
%TO.P,U4,24,A9*%
%TO.N,/A9*%
X122135000Y-77815000D03*
%TO.P,U4,25,A8*%
%TO.N,/A8*%
X122135000Y-80355000D03*
%TO.P,U4,26,A13*%
%TO.N,/A13*%
X122135000Y-82895000D03*
%TO.P,U4,27,~{WE}*%
%TO.N,/~{WR_NVRAM}*%
X122135000Y-85435000D03*
%TO.P,U4,28,VCC*%
%TO.N,+5V*%
X122135000Y-87975000D03*
%TD*%
D12*
%TO.P,J3,1,Pin_1*%
%TO.N,unconnected-(J3-Pin_1-Pad1)*%
X145000000Y-54940000D03*
D13*
%TO.P,J3,2,Pin_2*%
%TO.N,unconnected-(J3-Pin_2-Pad2)*%
X145000000Y-57480000D03*
%TO.P,J3,3,Pin_3*%
%TO.N,unconnected-(J3-Pin_3-Pad3)*%
X145000000Y-60020000D03*
%TO.P,J3,4,Pin_4*%
%TO.N,unconnected-(J3-Pin_4-Pad4)*%
X145000000Y-62560000D03*
%TO.P,J3,5,Pin_5*%
%TO.N,unconnected-(J3-Pin_5-Pad5)*%
X145000000Y-65100000D03*
%TO.P,J3,6,Pin_6*%
%TO.N,unconnected-(J3-Pin_6-Pad6)*%
X145000000Y-67640000D03*
%TO.P,J3,7,Pin_7*%
%TO.N,unconnected-(J3-Pin_7-Pad7)*%
X145000000Y-70180000D03*
%TO.P,J3,8,Pin_8*%
%TO.N,unconnected-(J3-Pin_8-Pad8)*%
X145000000Y-72720000D03*
%TO.P,J3,9,Pin_9*%
%TO.N,unconnected-(J3-Pin_9-Pad9)*%
X145000000Y-75260000D03*
%TO.P,J3,10,Pin_10*%
%TO.N,unconnected-(J3-Pin_10-Pad10)*%
X145000000Y-77800000D03*
%TO.P,J3,11,Pin_11*%
%TO.N,unconnected-(J3-Pin_11-Pad11)*%
X145000000Y-80340000D03*
%TO.P,J3,12,Pin_12*%
%TO.N,unconnected-(J3-Pin_12-Pad12)*%
X145000000Y-82880000D03*
%TO.P,J3,13,Pin_13*%
%TO.N,unconnected-(J3-Pin_13-Pad13)*%
X145000000Y-85420000D03*
%TO.P,J3,14,Pin_14*%
%TO.N,unconnected-(J3-Pin_14-Pad14)*%
X145000000Y-87960000D03*
%TO.P,J3,15,Pin_15*%
%TO.N,unconnected-(J3-Pin_15-Pad15)*%
X145000000Y-90500000D03*
%TO.P,J3,16,Pin_16*%
%TO.N,unconnected-(J3-Pin_16-Pad16)*%
X145000000Y-93040000D03*
%TO.P,J3,17,Pin_17*%
%TO.N,unconnected-(J3-Pin_17-Pad17)*%
X145000000Y-95580000D03*
%TO.P,J3,18,Pin_18*%
%TO.N,unconnected-(J3-Pin_18-Pad18)*%
X145000000Y-98120000D03*
%TO.P,J3,19,Pin_19*%
%TO.N,unconnected-(J3-Pin_19-Pad19)*%
X145000000Y-100660000D03*
%TO.P,J3,20,Pin_20*%
%TO.N,unconnected-(J3-Pin_20-Pad20)*%
X145000000Y-103200000D03*
%TD*%
D14*
%TO.P,U10,1*%
%TO.N,/8000H*%
X130475000Y-93450000D03*
%TO.P,U10,2*%
%TO.N,/RESET*%
X130475000Y-92500000D03*
%TO.P,U10,3,GND*%
%TO.N,GND*%
X130475000Y-91550000D03*
%TO.P,U10,4*%
%TO.N,/~{NVRAM}*%
X128200000Y-91550000D03*
%TO.P,U10,5,VCC*%
%TO.N,+5V*%
X128200000Y-93450000D03*
%TD*%
D15*
%TO.P,U7,1,A0*%
%TO.N,/A13*%
X137680000Y-96300000D03*
%TO.P,U7,2,A1*%
%TO.N,/A14*%
X136410000Y-96300000D03*
%TO.P,U7,3,A2*%
%TO.N,/A15*%
X135140000Y-96300000D03*
%TO.P,U7,4,E1*%
%TO.N,GND*%
X133870000Y-96300000D03*
%TO.P,U7,5,E2*%
X132600000Y-96300000D03*
%TO.P,U7,6,E3*%
%TO.N,/DECODER*%
X131330000Y-96300000D03*
%TO.P,U7,7,O7*%
%TO.N,/E000H*%
X130060000Y-96300000D03*
%TO.P,U7,8,GND*%
%TO.N,GND*%
X128790000Y-96300000D03*
%TO.P,U7,9,O6*%
%TO.N,/C000H*%
X128790000Y-101250000D03*
%TO.P,U7,10,O5*%
%TO.N,/A000H*%
X130060000Y-101250000D03*
%TO.P,U7,11,O4*%
%TO.N,/8000H*%
X131330000Y-101250000D03*
%TO.P,U7,12,O3*%
%TO.N,/6000H*%
X132600000Y-101250000D03*
%TO.P,U7,13,O2*%
%TO.N,/4000H*%
X133870000Y-101250000D03*
%TO.P,U7,14,O1*%
%TO.N,/2000H*%
X135140000Y-101250000D03*
%TO.P,U7,15,O0*%
%TO.N,/0000H*%
X136410000Y-101250000D03*
%TO.P,U7,16,VCC*%
%TO.N,+5V*%
X137680000Y-101250000D03*
%TD*%
D12*
%TO.P,J2,1,Pin_1*%
%TO.N,/P1.0*%
X56000000Y-54950000D03*
D13*
%TO.P,J2,2,Pin_2*%
%TO.N,/P1.1*%
X56000000Y-57490000D03*
%TO.P,J2,3,Pin_3*%
%TO.N,/P1.2{slash}PWM*%
X56000000Y-60030000D03*
%TO.P,J2,4,Pin_4*%
%TO.N,/P1.3{slash}~{ALEDIS}*%
X56000000Y-62570000D03*
%TO.P,J2,5,Pin_5*%
%TO.N,/P1.4{slash}~{PMGPULSE}*%
X56000000Y-65110000D03*
%TO.P,J2,6,Pin_6*%
%TO.N,/P1.5{slash}~{PGMEN}*%
X56000000Y-67650000D03*
%TO.P,J2,7,Pin_7*%
%TO.N,/P1.6{slash}~{DMA_ACK}*%
X56000000Y-70190000D03*
%TO.P,J2,8,Pin_8*%
%TO.N,/P1.7{slash}~{LTP}*%
X56000000Y-72730000D03*
%TO.P,J2,9,Pin_9*%
%TO.N,GND*%
X56000000Y-75270000D03*
%TO.P,J2,10,Pin_10*%
%TO.N,/P3.0{slash}RXD*%
X56000000Y-77810000D03*
%TO.P,J2,11,Pin_11*%
%TO.N,/P3.1{slash}TXD*%
X56000000Y-80350000D03*
%TO.P,J2,12,Pin_12*%
%TO.N,/P3.2{slash}~{INT0}*%
X56000000Y-82890000D03*
%TO.P,J2,13,Pin_13*%
%TO.N,/P3.3{slash}~{INT1}*%
X56000000Y-85430000D03*
%TO.P,J2,14,Pin_14*%
%TO.N,/P3.4{slash}T0*%
X56000000Y-87970000D03*
%TO.P,J2,15,Pin_15*%
%TO.N,/P3.5{slash}T1*%
X56000000Y-90510000D03*
%TO.P,J2,16,Pin_16*%
%TO.N,/~{WR}*%
X56000000Y-93050000D03*
%TO.P,J2,17,Pin_17*%
%TO.N,/~{RD}*%
X56000000Y-95590000D03*
%TO.P,J2,18,Pin_18*%
%TO.N,GND*%
X56000000Y-98130000D03*
%TO.P,J2,19,Pin_19*%
%TO.N,+5V*%
X56000000Y-100670000D03*
%TO.P,J2,20,Pin_20*%
X56000000Y-103210000D03*
%TD*%
D12*
%TO.P,J1,1,Pin_1*%
%TO.N,+5V*%
X78000000Y-110000000D03*
D13*
%TO.P,J1,2,Pin_2*%
%TO.N,/D0*%
X78000000Y-107460000D03*
%TO.P,J1,3,Pin_3*%
%TO.N,GND*%
X80540000Y-110000000D03*
%TO.P,J1,4,Pin_4*%
%TO.N,/D1*%
X80540000Y-107460000D03*
%TO.P,J1,5,Pin_5*%
%TO.N,/CLK_EXT*%
X83080000Y-110000000D03*
%TO.P,J1,6,Pin_6*%
%TO.N,/D2*%
X83080000Y-107460000D03*
%TO.P,J1,7,Pin_7*%
%TO.N,/RESET*%
X85620000Y-110000000D03*
%TO.P,J1,8,Pin_8*%
%TO.N,/D3*%
X85620000Y-107460000D03*
%TO.P,J1,9,Pin_9*%
%TO.N,/~{WR}*%
X88160000Y-110000000D03*
%TO.P,J1,10,Pin_10*%
%TO.N,/D4*%
X88160000Y-107460000D03*
%TO.P,J1,11,Pin_11*%
%TO.N,/~{RD}*%
X90700000Y-110000000D03*
%TO.P,J1,12,Pin_12*%
%TO.N,/D5*%
X90700000Y-107460000D03*
%TO.P,J1,13,Pin_13*%
%TO.N,/ALE*%
X93240000Y-110000000D03*
%TO.P,J1,14,Pin_14*%
%TO.N,/D6*%
X93240000Y-107460000D03*
%TO.P,J1,15,Pin_15*%
%TO.N,/~{PSEN}*%
X95780000Y-110000000D03*
%TO.P,J1,16,Pin_16*%
%TO.N,/D7*%
X95780000Y-107460000D03*
%TO.P,J1,17,Pin_17*%
%TO.N,/~{EA}*%
X98320000Y-110000000D03*
%TO.P,J1,18,Pin_18*%
%TO.N,/A0*%
X98320000Y-107460000D03*
%TO.P,J1,19,Pin_19*%
%TO.N,/~{RAM}*%
X100860000Y-110000000D03*
%TO.P,J1,20,Pin_20*%
%TO.N,/A1*%
X100860000Y-107460000D03*
%TO.P,J1,21,Pin_21*%
%TO.N,/A13{slash}RAM*%
X103400000Y-110000000D03*
%TO.P,J1,22,Pin_22*%
%TO.N,/A2*%
X103400000Y-107460000D03*
%TO.P,J1,23,Pin_23*%
%TO.N,/~{WR_NVRAM}*%
X105940000Y-110000000D03*
%TO.P,J1,24,Pin_24*%
%TO.N,/A3*%
X105940000Y-107460000D03*
%TO.P,J1,25,Pin_25*%
%TO.N,/~{NVRAM}*%
X108480000Y-110000000D03*
%TO.P,J1,26,Pin_26*%
%TO.N,/A4*%
X108480000Y-107460000D03*
%TO.P,J1,27,Pin_27*%
%TO.N,/RD_ANY*%
X111020000Y-110000000D03*
%TO.P,J1,28,Pin_28*%
%TO.N,/A5*%
X111020000Y-107460000D03*
%TO.P,J1,29,Pin_29*%
%TO.N,/CS_EX_ROM*%
X113560000Y-110000000D03*
%TO.P,J1,30,Pin_30*%
%TO.N,/A6*%
X113560000Y-107460000D03*
%TO.P,J1,31,Pin_31*%
%TO.N,/DECODER*%
X116100000Y-110000000D03*
%TO.P,J1,32,Pin_32*%
%TO.N,/A7*%
X116100000Y-107460000D03*
%TO.P,J1,33,Pin_33*%
%TO.N,/A15*%
X118640000Y-110000000D03*
%TO.P,J1,34,Pin_34*%
%TO.N,/A8*%
X118640000Y-107460000D03*
%TO.P,J1,35,Pin_35*%
%TO.N,/A14*%
X121180000Y-110000000D03*
%TO.P,J1,36,Pin_36*%
%TO.N,/A9*%
X121180000Y-107460000D03*
%TO.P,J1,37,Pin_37*%
%TO.N,/A13*%
X123720000Y-110000000D03*
%TO.P,J1,38,Pin_38*%
%TO.N,/A10*%
X123720000Y-107460000D03*
%TO.P,J1,39,Pin_39*%
%TO.N,/A12*%
X126260000Y-110000000D03*
%TO.P,J1,40,Pin_40*%
%TO.N,/A11*%
X126260000Y-107460000D03*
%TO.P,J1,41,Pin_41*%
%TO.N,/E000H*%
X128800000Y-110000000D03*
%TO.P,J1,42,Pin_42*%
%TO.N,/C000H*%
X128800000Y-107460000D03*
%TO.P,J1,43,Pin_43*%
%TO.N,/A000H*%
X131340000Y-110000000D03*
%TO.P,J1,44,Pin_44*%
%TO.N,/8000H*%
X131340000Y-107460000D03*
%TO.P,J1,45,Pin_45*%
%TO.N,/6000H*%
X133880000Y-110000000D03*
%TO.P,J1,46,Pin_46*%
%TO.N,/4000H*%
X133880000Y-107460000D03*
%TO.P,J1,47,Pin_47*%
%TO.N,/2000H*%
X136420000Y-110000000D03*
%TO.P,J1,48,Pin_48*%
%TO.N,/0000H*%
X136420000Y-107460000D03*
%TO.P,J1,49,Pin_49*%
%TO.N,GND*%
X138960000Y-110000000D03*
%TO.P,J1,50,Pin_50*%
%TO.N,+5V*%
X138960000Y-107460000D03*
%TD*%
D12*
%TO.P,JP1,1,A*%
%TO.N,+5V*%
X87000000Y-82910000D03*
D13*
%TO.P,JP1,2,C*%
%TO.N,/~{WR_NVRAM}*%
X87000000Y-85450000D03*
%TO.P,JP1,3,B*%
%TO.N,Net-(JP1-B)*%
X87000000Y-87990000D03*
%TD*%
D16*
%TO.P,RN1,1,common*%
%TO.N,+5V*%
X81400000Y-55025000D03*
D17*
%TO.P,RN1,2,R1*%
%TO.N,/D0*%
X81400000Y-57565000D03*
%TO.P,RN1,3,R2*%
%TO.N,/D1*%
X81400000Y-60105000D03*
%TO.P,RN1,4,R3*%
%TO.N,/D2*%
X81400000Y-62645000D03*
%TO.P,RN1,5,R4*%
%TO.N,/D3*%
X81400000Y-65185000D03*
%TO.P,RN1,6,R5*%
%TO.N,/D4*%
X81400000Y-67725000D03*
%TO.P,RN1,7,R6*%
%TO.N,/D5*%
X81400000Y-70265000D03*
%TO.P,RN1,8,R7*%
%TO.N,/D6*%
X81400000Y-72805000D03*
%TO.P,RN1,9,R8*%
%TO.N,/D7*%
X81400000Y-75345000D03*
%TD*%
D10*
%TO.P,U3,1,A14*%
%TO.N,/A14*%
X116075000Y-87975000D03*
D11*
%TO.P,U3,2,A12*%
%TO.N,/A12*%
X116075000Y-85435000D03*
%TO.P,U3,3,A7*%
%TO.N,/A7*%
X116075000Y-82895000D03*
%TO.P,U3,4,A6*%
%TO.N,/A6*%
X116075000Y-80355000D03*
%TO.P,U3,5,A5*%
%TO.N,/A5*%
X116075000Y-77815000D03*
%TO.P,U3,6,A4*%
%TO.N,/A4*%
X116075000Y-75275000D03*
%TO.P,U3,7,A3*%
%TO.N,/A3*%
X116075000Y-72735000D03*
%TO.P,U3,8,A2*%
%TO.N,/A2*%
X116075000Y-70195000D03*
%TO.P,U3,9,A1*%
%TO.N,/A1*%
X116075000Y-67655000D03*
%TO.P,U3,10,A0*%
%TO.N,/A0*%
X116075000Y-65115000D03*
%TO.P,U3,11,D0*%
%TO.N,/D0*%
X116075000Y-62575000D03*
%TO.P,U3,12,D1*%
%TO.N,/D1*%
X116075000Y-60035000D03*
%TO.P,U3,13,D2*%
%TO.N,/D2*%
X116075000Y-57495000D03*
%TO.P,U3,14,GND*%
%TO.N,GND*%
X116075000Y-54955000D03*
%TO.P,U3,15,D3*%
%TO.N,/D3*%
X100835000Y-54955000D03*
%TO.P,U3,16,D4*%
%TO.N,/D4*%
X100835000Y-57495000D03*
%TO.P,U3,17,D5*%
%TO.N,/D5*%
X100835000Y-60035000D03*
%TO.P,U3,18,D6*%
%TO.N,/D6*%
X100835000Y-62575000D03*
%TO.P,U3,19,D7*%
%TO.N,/D7*%
X100835000Y-65115000D03*
%TO.P,U3,20,~{CE}*%
%TO.N,/~{RAM}*%
X100835000Y-67655000D03*
%TO.P,U3,21,A10*%
%TO.N,/A10*%
X100835000Y-70195000D03*
%TO.P,U3,22,~{OE}*%
%TO.N,/~{RD}*%
X100835000Y-72735000D03*
%TO.P,U3,23,A11*%
%TO.N,/A11*%
X100835000Y-75275000D03*
%TO.P,U3,24,A9*%
%TO.N,/A9*%
X100835000Y-77815000D03*
%TO.P,U3,25,A8*%
%TO.N,/A8*%
X100835000Y-80355000D03*
%TO.P,U3,26,A13*%
%TO.N,/A13{slash}RAM*%
X100835000Y-82895000D03*
%TO.P,U3,27,~{WE}*%
%TO.N,/~{WR}*%
X100835000Y-85435000D03*
%TO.P,U3,28,VCC*%
%TO.N,+5V*%
X100835000Y-87975000D03*
%TD*%
D12*
%TO.P,JP3,1,A*%
%TO.N,+5V*%
X83200000Y-82925000D03*
D13*
%TO.P,JP3,2,C*%
%TO.N,/~{EA}*%
X83200000Y-85465000D03*
%TO.P,JP3,3,B*%
%TO.N,GND*%
X83200000Y-88005000D03*
%TD*%
D18*
%TO.P,Y1,1,1*%
%TO.N,Net-(U1-XTAL2)*%
X69075000Y-107800000D03*
%TO.P,Y1,2,2*%
%TO.N,Net-(U1-XTAL1)*%
X64195000Y-107800000D03*
%TD*%
D19*
%TO.P,R1,1*%
%TO.N,+5V*%
X125000000Y-102212500D03*
%TO.P,R1,2*%
%TO.N,/DECODER*%
X125000000Y-100387500D03*
%TD*%
D20*
%TO.N,/RESET*%
X102800000Y-97200000D03*
X73700000Y-105100000D03*
X102800000Y-105100000D03*
X84400000Y-105100000D03*
%TO.N,/~{WR}*%
X86900000Y-100300000D03*
X103900000Y-85435000D03*
X100800000Y-100300000D03*
X68200000Y-94400000D03*
%TO.N,/~{RD}*%
X89400000Y-101500000D03*
X69150000Y-96900000D03*
X103300000Y-72735000D03*
X100200000Y-101500000D03*
%TO.N,/A8*%
X115800000Y-103300000D03*
X111100000Y-80350000D03*
%TO.N,/A9*%
X117500000Y-102700000D03*
X112300000Y-77815000D03*
%TO.N,/A10*%
X118900000Y-102100000D03*
X113875000Y-70825000D03*
%TO.N,/A11*%
X120200000Y-100900000D03*
X118900000Y-75800000D03*
%TO.N,/A12*%
X119000000Y-99700000D03*
X118200000Y-85400000D03*
%TO.N,/A13*%
X97400000Y-99100000D03*
X117500000Y-99024500D03*
X112900000Y-84200000D03*
%TO.N,/A14*%
X111700000Y-88000000D03*
X115900000Y-98500000D03*
%TO.N,/A15*%
X93600000Y-97900000D03*
X114500000Y-97824500D03*
%TO.N,/~{PSEN}*%
X94500000Y-97300000D03*
%TO.N,/ALE*%
X92000000Y-96700000D03*
%TO.N,/~{EA}*%
X81000000Y-85450000D03*
X96500000Y-96100000D03*
%TO.N,/A0*%
X102700000Y-63300000D03*
X102900000Y-59400000D03*
%TO.N,/A1*%
X104500000Y-65750000D03*
X104500000Y-61300000D03*
%TO.N,/A2*%
X105700000Y-63850000D03*
X105700000Y-69600000D03*
%TO.N,/A3*%
X106900000Y-66400000D03*
X106900000Y-72000000D03*
%TO.N,/A4*%
X108100000Y-68900000D03*
X108100000Y-74600000D03*
%TO.N,/A5*%
X109300000Y-75850000D03*
X109300000Y-71450000D03*
%TO.N,/A6*%
X109900000Y-74050000D03*
X109900000Y-78700000D03*
%TO.N,/A7*%
X110500000Y-81700000D03*
X110500000Y-76550000D03*
%TO.N,/~{LD}*%
X68600000Y-74100000D03*
%TO.N,/~{RAM}*%
X91500000Y-69500000D03*
X91500000Y-85400000D03*
X99600000Y-95500000D03*
X91500000Y-95500000D03*
%TO.N,/D0*%
X83100000Y-61300000D03*
X97100000Y-61300000D03*
X102875500Y-60650000D03*
X83100000Y-57565000D03*
%TO.N,/D1*%
X102850000Y-58100000D03*
X96950000Y-58800000D03*
X83624500Y-60105000D03*
%TO.N,/D2*%
X84149000Y-62595000D03*
X102850000Y-56970500D03*
%TO.N,/D3*%
X84700000Y-65185000D03*
X84700000Y-58800000D03*
%TO.N,/D4*%
X88700000Y-95500000D03*
X88075500Y-95500000D03*
X88700000Y-67675000D03*
%TO.N,/D5*%
X90700000Y-94900000D03*
X89300000Y-94900000D03*
X89300000Y-70215000D03*
%TO.N,/D6*%
X89900000Y-94300000D03*
X89900000Y-72800000D03*
X92800000Y-94300000D03*
%TO.N,/D7*%
X95780000Y-93700000D03*
X90500000Y-93700000D03*
X90500000Y-75300000D03*
%TO.N,GND*%
X128800000Y-95050000D03*
D21*
X91450000Y-52300000D03*
X98950000Y-91450000D03*
D20*
X138100000Y-104100000D03*
D21*
X73500000Y-52250000D03*
D20*
X137350000Y-91550000D03*
X131450000Y-91550000D03*
X73125000Y-107800000D03*
X124150000Y-93800000D03*
D21*
X124050000Y-89900000D03*
D20*
X134000000Y-90500000D03*
X60125000Y-107800000D03*
X133850000Y-95000000D03*
%TO.N,+5V*%
X128200000Y-94100000D03*
X134000000Y-94200000D03*
X124000000Y-102200000D03*
X138200000Y-100100000D03*
%TO.N,/A13{slash}RAM*%
X105100000Y-82895000D03*
%TO.N,/~{NVRAM}*%
X107200000Y-96500000D03*
X107500000Y-68200000D03*
%TO.N,/RD_ANY*%
X74400000Y-104500000D03*
X109700000Y-104500000D03*
X108700000Y-73050000D03*
%TO.N,/~{WR_NVRAM}*%
X106300000Y-86700000D03*
%TO.N,Net-(JP1-B)*%
X64200000Y-76600000D03*
%TO.N,/0000H*%
X136420000Y-102580000D03*
X137700000Y-93500000D03*
X136420000Y-103900000D03*
X95200000Y-103900000D03*
X95200000Y-82850000D03*
%TO.N,/CS_EX_ROM*%
X111700000Y-95900000D03*
%TO.N,/8000H*%
X131800000Y-93500000D03*
X131340000Y-102560000D03*
%TO.N,/E000H*%
X130130000Y-95000000D03*
%TO.N,/C000H*%
X128800000Y-102600000D03*
%TO.N,/A000H*%
X130050000Y-102630000D03*
%TO.N,/6000H*%
X132600000Y-102600000D03*
%TO.N,/4000H*%
X133900000Y-102600000D03*
%TO.N,/2000H*%
X135100000Y-102600000D03*
%TO.N,/DECODER*%
X127500000Y-99700000D03*
X113100000Y-100324500D03*
X131300000Y-95000000D03*
%TD*%
D22*
%TO.N,Net-(U1-XTAL1)*%
X64195000Y-103815000D02*
X64195000Y-107800000D01*
X61100000Y-100720000D02*
X64195000Y-103815000D01*
%TO.N,Net-(U1-XTAL2)*%
X64520000Y-101600000D02*
X64520000Y-101620000D01*
X69075000Y-106175000D02*
X69075000Y-107800000D01*
X64520000Y-101620000D02*
X69075000Y-106175000D01*
X61100000Y-98180000D02*
X64520000Y-101600000D01*
%TO.N,/P1.0*%
X56020000Y-54980000D02*
X61080000Y-54980000D01*
X56000000Y-55000000D02*
X56020000Y-54980000D01*
X61080000Y-54980000D02*
X61100000Y-55000000D01*
%TO.N,/P1.1*%
X61080000Y-57520000D02*
X61100000Y-57540000D01*
X56000000Y-57540000D02*
X56020000Y-57520000D01*
X56020000Y-57520000D02*
X61080000Y-57520000D01*
%TO.N,/P1.2{slash}PWM*%
X61080000Y-60060000D02*
X61100000Y-60080000D01*
X56000000Y-60080000D02*
X56020000Y-60060000D01*
X56020000Y-60060000D02*
X61080000Y-60060000D01*
%TO.N,/P1.3{slash}~{ALEDIS}*%
X56020000Y-62600000D02*
X61080000Y-62600000D01*
X56000000Y-62620000D02*
X56020000Y-62600000D01*
X61080000Y-62600000D02*
X61100000Y-62620000D01*
%TO.N,/P1.4{slash}~{PMGPULSE}*%
X61080000Y-65140000D02*
X61100000Y-65160000D01*
X56020000Y-65140000D02*
X61080000Y-65140000D01*
X56000000Y-65160000D02*
X56020000Y-65140000D01*
%TO.N,/P1.5{slash}~{PGMEN}*%
X61080000Y-67680000D02*
X61100000Y-67700000D01*
X56020000Y-67680000D02*
X61080000Y-67680000D01*
X56000000Y-67700000D02*
X56020000Y-67680000D01*
%TO.N,/P1.6{slash}~{DMA_ACK}*%
X56020000Y-70220000D02*
X61080000Y-70220000D01*
X56000000Y-70240000D02*
X56020000Y-70220000D01*
X61080000Y-70220000D02*
X61100000Y-70240000D01*
%TO.N,/P1.7{slash}~{LTP}*%
X61080000Y-72760000D02*
X61100000Y-72780000D01*
X56020000Y-72760000D02*
X61080000Y-72760000D01*
X56000000Y-72780000D02*
X56020000Y-72760000D01*
%TO.N,/RESET*%
X84400000Y-105100000D02*
X102800000Y-105100000D01*
X126600000Y-93400000D02*
X126600000Y-95700000D01*
X125100000Y-97200000D02*
X102800000Y-97200000D01*
X84400000Y-105100000D02*
X73700000Y-105100000D01*
X130475000Y-92500000D02*
X127500000Y-92500000D01*
X130475000Y-92500000D02*
X136337500Y-92500000D01*
X127500000Y-92500000D02*
X126600000Y-93400000D01*
X126600000Y-95700000D02*
X125100000Y-97200000D01*
%TO.N,/P3.0{slash}RXD*%
X61080000Y-77840000D02*
X61100000Y-77860000D01*
X56020000Y-77840000D02*
X61080000Y-77840000D01*
X56000000Y-77860000D02*
X56020000Y-77840000D01*
%TO.N,/P3.1{slash}TXD*%
X56000000Y-80400000D02*
X56020000Y-80380000D01*
X61080000Y-80380000D02*
X61100000Y-80400000D01*
X56020000Y-80380000D02*
X61080000Y-80380000D01*
%TO.N,/P3.2{slash}~{INT0}*%
X56000000Y-82940000D02*
X56020000Y-82920000D01*
X56020000Y-82920000D02*
X61080000Y-82920000D01*
X61080000Y-82920000D02*
X61100000Y-82940000D01*
%TO.N,/P3.3{slash}~{INT1}*%
X56020000Y-85460000D02*
X61080000Y-85460000D01*
X61080000Y-85460000D02*
X61100000Y-85480000D01*
X56000000Y-85480000D02*
X56020000Y-85460000D01*
%TO.N,/P3.4{slash}T0*%
X56000000Y-88020000D02*
X56020000Y-88000000D01*
X61080000Y-88000000D02*
X61100000Y-88020000D01*
X56020000Y-88000000D02*
X61080000Y-88000000D01*
%TO.N,/P3.5{slash}T1*%
X56000000Y-90560000D02*
X56020000Y-90540000D01*
X61080000Y-90540000D02*
X61100000Y-90560000D01*
X56020000Y-90540000D02*
X61080000Y-90540000D01*
%TO.N,/~{WR}*%
X83100000Y-100300000D02*
X77200000Y-94400000D01*
X61080000Y-93080000D02*
X61100000Y-93100000D01*
X103900000Y-85435000D02*
X100835000Y-85435000D01*
X86900000Y-100300000D02*
X83100000Y-100300000D01*
X68200000Y-94400000D02*
X62400000Y-94400000D01*
X77200000Y-94400000D02*
X68200000Y-94400000D01*
X56020000Y-93080000D02*
X61080000Y-93080000D01*
X86900000Y-100300000D02*
X100800000Y-100300000D01*
X56000000Y-93100000D02*
X56020000Y-93080000D01*
X62400000Y-94400000D02*
X61100000Y-93100000D01*
%TO.N,/~{RD}*%
X82100000Y-101500000D02*
X77500000Y-96900000D01*
X103300000Y-72735000D02*
X100835000Y-72735000D01*
X100200000Y-101500000D02*
X89400000Y-101500000D01*
X77500000Y-96900000D02*
X62360000Y-96900000D01*
X56000000Y-95640000D02*
X56020000Y-95620000D01*
X56020000Y-95620000D02*
X61080000Y-95620000D01*
X61080000Y-95620000D02*
X61100000Y-95640000D01*
X62360000Y-96900000D02*
X61100000Y-95640000D01*
X89400000Y-101500000D02*
X82100000Y-101500000D01*
%TO.N,/A8*%
X113903186Y-81600000D02*
X118200000Y-81600000D01*
X115800000Y-103300000D02*
X76380000Y-103300000D01*
X111100000Y-80350000D02*
X105960000Y-80350000D01*
X105960000Y-80350000D02*
X105955000Y-80355000D01*
X105955000Y-80355000D02*
X100835000Y-80355000D01*
X119445000Y-80355000D02*
X122135000Y-80355000D01*
X118200000Y-81600000D02*
X119445000Y-80355000D01*
X112653186Y-80350000D02*
X113903186Y-81600000D01*
X111100000Y-80350000D02*
X112653186Y-80350000D01*
X76380000Y-103300000D02*
X76340000Y-103260000D01*
%TO.N,/A9*%
X114500000Y-79100000D02*
X118150000Y-79100000D01*
X119435000Y-77815000D02*
X122135000Y-77815000D01*
X117500000Y-102700000D02*
X78320000Y-102700000D01*
X112300000Y-77815000D02*
X113215000Y-77815000D01*
X112300000Y-77815000D02*
X100835000Y-77815000D01*
X118150000Y-79100000D02*
X119435000Y-77815000D01*
X78320000Y-102700000D02*
X76340000Y-100720000D01*
X113215000Y-77815000D02*
X114500000Y-79100000D01*
%TO.N,/A10*%
X113875000Y-70825000D02*
X114500000Y-71450000D01*
X113295000Y-70245000D02*
X100885000Y-70245000D01*
X100885000Y-70245000D02*
X100835000Y-70195000D01*
X114500000Y-71450000D02*
X118100000Y-71450000D01*
X118900000Y-102100000D02*
X80260000Y-102100000D01*
X119355000Y-70195000D02*
X122135000Y-70195000D01*
X118100000Y-71450000D02*
X119355000Y-70195000D01*
X80260000Y-102100000D02*
X76340000Y-98180000D01*
X113875000Y-70825000D02*
X113295000Y-70245000D01*
%TO.N,/A11*%
X114500000Y-76550000D02*
X113225000Y-75275000D01*
X120200000Y-100900000D02*
X82700000Y-100900000D01*
X118900000Y-75800000D02*
X118150000Y-76550000D01*
X118900000Y-75800000D02*
X119425000Y-75275000D01*
X119425000Y-75275000D02*
X122135000Y-75275000D01*
X82700000Y-100900000D02*
X77440000Y-95640000D01*
X113225000Y-75275000D02*
X100835000Y-75275000D01*
X77440000Y-95640000D02*
X76340000Y-95640000D01*
X118150000Y-76550000D02*
X114500000Y-76550000D01*
%TO.N,/A12*%
X116075000Y-85435000D02*
X118215000Y-85435000D01*
X83400000Y-99700000D02*
X76800000Y-93100000D01*
X118215000Y-85435000D02*
X119500000Y-84150000D01*
X123700000Y-84150000D02*
X124985000Y-85435000D01*
X119000000Y-99700000D02*
X83400000Y-99700000D01*
X119500000Y-84150000D02*
X123700000Y-84150000D01*
X76800000Y-93100000D02*
X76340000Y-93100000D01*
X124985000Y-85435000D02*
X137375000Y-85435000D01*
%TO.N,/A13*%
X117500000Y-99024500D02*
X117424500Y-99100000D01*
X78000000Y-92220000D02*
X76340000Y-90560000D01*
X78000000Y-93300000D02*
X78000000Y-92220000D01*
X112900000Y-84200000D02*
X117900000Y-84200000D01*
X117900000Y-84200000D02*
X119205000Y-82895000D01*
X117575500Y-99100000D02*
X136100000Y-99100000D01*
X97400000Y-99100000D02*
X83800000Y-99100000D01*
X137680000Y-97520000D02*
X137680000Y-96300000D01*
X117500000Y-99024500D02*
X117575500Y-99100000D01*
X83800000Y-99100000D02*
X78000000Y-93300000D01*
X119205000Y-82895000D02*
X122135000Y-82895000D01*
X117424500Y-99100000D02*
X97400000Y-99100000D01*
X136100000Y-99100000D02*
X137680000Y-97520000D01*
%TO.N,/A14*%
X115900000Y-98500000D02*
X84200000Y-98500000D01*
X77920000Y-88020000D02*
X76340000Y-88020000D01*
X136410000Y-97390000D02*
X136410000Y-96300000D01*
X111725000Y-87975000D02*
X116075000Y-87975000D01*
X115900000Y-98500000D02*
X135300000Y-98500000D01*
X78600000Y-92900000D02*
X78600000Y-88700000D01*
X118425000Y-87975000D02*
X119650000Y-86750000D01*
X124975000Y-87975000D02*
X137375000Y-87975000D01*
X135300000Y-98500000D02*
X136410000Y-97390000D01*
X111700000Y-88000000D02*
X111725000Y-87975000D01*
X78600000Y-88700000D02*
X77920000Y-88020000D01*
X123750000Y-86750000D02*
X124975000Y-87975000D01*
X119650000Y-86750000D02*
X123750000Y-86750000D01*
X116075000Y-87975000D02*
X118425000Y-87975000D01*
X84200000Y-98500000D02*
X78600000Y-92900000D01*
%TO.N,/A15*%
X114500000Y-97824500D02*
X114575500Y-97900000D01*
X77980000Y-85480000D02*
X76340000Y-85480000D01*
X93600000Y-97900000D02*
X84700000Y-97900000D01*
X79200000Y-86700000D02*
X77980000Y-85480000D01*
X135140000Y-97460000D02*
X135140000Y-96300000D01*
X134700000Y-97900000D02*
X135140000Y-97460000D01*
X114575500Y-97900000D02*
X134700000Y-97900000D01*
X114424500Y-97900000D02*
X93600000Y-97900000D01*
X84700000Y-97900000D02*
X79200000Y-92400000D01*
X79200000Y-92400000D02*
X79200000Y-86700000D01*
X114500000Y-97824500D02*
X114424500Y-97900000D01*
%TO.N,/~{PSEN}*%
X79800000Y-84800000D02*
X77940000Y-82940000D01*
X77940000Y-82940000D02*
X76340000Y-82940000D01*
X85100000Y-97300000D02*
X79800000Y-92000000D01*
X94500000Y-97300000D02*
X85100000Y-97300000D01*
X79800000Y-92000000D02*
X79800000Y-84800000D01*
%TO.N,/ALE*%
X80400000Y-82850000D02*
X77950000Y-80400000D01*
X77950000Y-80400000D02*
X76340000Y-80400000D01*
X92000000Y-96700000D02*
X85500000Y-96700000D01*
X85500000Y-96700000D02*
X80400000Y-91600000D01*
X80400000Y-91600000D02*
X80400000Y-82850000D01*
%TO.N,/~{EA}*%
X81000000Y-85450000D02*
X81000000Y-80200000D01*
X81000000Y-80200000D02*
X78660000Y-77860000D01*
X78660000Y-77860000D02*
X76340000Y-77860000D01*
X86000000Y-96100000D02*
X96500000Y-96100000D01*
X81000000Y-91100000D02*
X86000000Y-96100000D01*
X81000000Y-85450000D02*
X81000000Y-91100000D01*
%TO.N,/A0*%
X116075000Y-65115000D02*
X118135000Y-65115000D01*
X102900000Y-59400000D02*
X102300000Y-58800000D01*
X96865000Y-57515000D02*
X94270000Y-57515000D01*
X123700000Y-63900000D02*
X124915000Y-65115000D01*
X102700000Y-63300000D02*
X112700000Y-63300000D01*
X112700000Y-63300000D02*
X114515000Y-65115000D01*
X98150000Y-58800000D02*
X96865000Y-57515000D01*
X102300000Y-58800000D02*
X98150000Y-58800000D01*
X118135000Y-65115000D02*
X119350000Y-63900000D01*
X119350000Y-63900000D02*
X123700000Y-63900000D01*
X114515000Y-65115000D02*
X116075000Y-65115000D01*
X124915000Y-65115000D02*
X137375000Y-65115000D01*
%TO.N,/A1*%
X119400000Y-66400000D02*
X123700000Y-66400000D01*
X116075000Y-67655000D02*
X118145000Y-67655000D01*
X118145000Y-67655000D02*
X119400000Y-66400000D01*
X114555000Y-67655000D02*
X116075000Y-67655000D01*
X123700000Y-66400000D02*
X124955000Y-67655000D01*
X104500000Y-65750000D02*
X112650000Y-65750000D01*
X98100000Y-61300000D02*
X96855000Y-60055000D01*
X124955000Y-67655000D02*
X137375000Y-67655000D01*
X104500000Y-61300000D02*
X98100000Y-61300000D01*
X96855000Y-60055000D02*
X94270000Y-60055000D01*
X112650000Y-65750000D02*
X114555000Y-67655000D01*
%TO.N,/A2*%
X113900000Y-69600000D02*
X114495000Y-70195000D01*
X119450000Y-68900000D02*
X123650000Y-68900000D01*
X96745000Y-62595000D02*
X94270000Y-62595000D01*
X114495000Y-70195000D02*
X116075000Y-70195000D01*
X118155000Y-70195000D02*
X119450000Y-68900000D01*
X98000000Y-63850000D02*
X96745000Y-62595000D01*
X123650000Y-68900000D02*
X124945000Y-70195000D01*
X105700000Y-69600000D02*
X113900000Y-69600000D01*
X105700000Y-63850000D02*
X98000000Y-63850000D01*
X116075000Y-70195000D02*
X118155000Y-70195000D01*
X124945000Y-70195000D02*
X137375000Y-70195000D01*
%TO.N,/A3*%
X118165000Y-72735000D02*
X119450000Y-71450000D01*
X124985000Y-72735000D02*
X137375000Y-72735000D01*
X106900000Y-66400000D02*
X98000000Y-66400000D01*
X116075000Y-72735000D02*
X118165000Y-72735000D01*
X98000000Y-66400000D02*
X96735000Y-65135000D01*
X119450000Y-71450000D02*
X123700000Y-71450000D01*
X106900000Y-72000000D02*
X113800000Y-72000000D01*
X114535000Y-72735000D02*
X116075000Y-72735000D01*
X123700000Y-71450000D02*
X124985000Y-72735000D01*
X96735000Y-65135000D02*
X94270000Y-65135000D01*
X113800000Y-72000000D02*
X114535000Y-72735000D01*
%TO.N,/A4*%
X97900000Y-68900000D02*
X96675000Y-67675000D01*
X108100000Y-68900000D02*
X97900000Y-68900000D01*
X119400000Y-74000000D02*
X123600000Y-74000000D01*
X108100000Y-74600000D02*
X113825000Y-74600000D01*
X118125000Y-75275000D02*
X119400000Y-74000000D01*
X123600000Y-74000000D02*
X124875000Y-75275000D01*
X116075000Y-75275000D02*
X118125000Y-75275000D01*
X96675000Y-67675000D02*
X94270000Y-67675000D01*
X113825000Y-74600000D02*
X114500000Y-75275000D01*
X114500000Y-75275000D02*
X116075000Y-75275000D01*
X124875000Y-75275000D02*
X137375000Y-75275000D01*
%TO.N,/A5*%
X123700000Y-76550000D02*
X124965000Y-77815000D01*
X109300000Y-75850000D02*
X112550000Y-75850000D01*
X116075000Y-77815000D02*
X118185000Y-77815000D01*
X97800000Y-71450000D02*
X96565000Y-70215000D01*
X109300000Y-71450000D02*
X97800000Y-71450000D01*
X118185000Y-77815000D02*
X119450000Y-76550000D01*
X96565000Y-70215000D02*
X94270000Y-70215000D01*
X112550000Y-75850000D02*
X114515000Y-77815000D01*
X119450000Y-76550000D02*
X123700000Y-76550000D01*
X124965000Y-77815000D02*
X137375000Y-77815000D01*
X114515000Y-77815000D02*
X116075000Y-77815000D01*
%TO.N,/A6*%
X96455000Y-72755000D02*
X94270000Y-72755000D01*
X109950000Y-78650000D02*
X112800000Y-78650000D01*
X116075000Y-80355000D02*
X118295000Y-80355000D01*
X97750000Y-74050000D02*
X96455000Y-72755000D01*
X118295000Y-80355000D02*
X119500000Y-79150000D01*
X119500000Y-79150000D02*
X123650000Y-79150000D01*
X123650000Y-79150000D02*
X124855000Y-80355000D01*
X112800000Y-78650000D02*
X114505000Y-80355000D01*
X109900000Y-78700000D02*
X109950000Y-78650000D01*
X109900000Y-74050000D02*
X97750000Y-74050000D01*
X124855000Y-80355000D02*
X137375000Y-80355000D01*
X114505000Y-80355000D02*
X116075000Y-80355000D01*
%TO.N,/A7*%
X96395000Y-75295000D02*
X94270000Y-75295000D01*
X124895000Y-82895000D02*
X137375000Y-82895000D01*
X112700000Y-81700000D02*
X113895000Y-82895000D01*
X113895000Y-82895000D02*
X116075000Y-82895000D01*
X116075000Y-82895000D02*
X118130000Y-82895000D01*
X97650000Y-76550000D02*
X96395000Y-75295000D01*
X123650000Y-81650000D02*
X124895000Y-82895000D01*
X118130000Y-82895000D02*
X119375000Y-81650000D01*
X110500000Y-81700000D02*
X112700000Y-81700000D01*
X119375000Y-81650000D02*
X123650000Y-81650000D01*
X110500000Y-76550000D02*
X97650000Y-76550000D01*
%TO.N,/~{LD}*%
X94270000Y-77835000D02*
X92635000Y-77835000D01*
X92100000Y-77300000D02*
X92100000Y-75200000D01*
X91000000Y-74100000D02*
X68600000Y-74100000D01*
X92635000Y-77835000D02*
X92100000Y-77300000D01*
X92100000Y-75200000D02*
X91000000Y-74100000D01*
%TO.N,/~{RAM}*%
X97200000Y-66500000D02*
X98355000Y-67655000D01*
X91500000Y-68341756D02*
X93341756Y-66500000D01*
X99600000Y-95500000D02*
X91500000Y-95500000D01*
X91500000Y-69500000D02*
X91500000Y-68341756D01*
X98355000Y-67655000D02*
X100835000Y-67655000D01*
X91500000Y-85400000D02*
X91510000Y-85410000D01*
X91510000Y-85410000D02*
X93600000Y-85410000D01*
X93341756Y-66500000D02*
X97200000Y-66500000D01*
%TO.N,/D0*%
X114525000Y-62575000D02*
X116075000Y-62575000D01*
X112600000Y-60650000D02*
X114525000Y-62575000D01*
X123650000Y-61350000D02*
X124875000Y-62575000D01*
X81375000Y-57540000D02*
X81400000Y-57565000D01*
X102875500Y-60650000D02*
X112600000Y-60650000D01*
X118175000Y-62575000D02*
X119400000Y-61350000D01*
X81400000Y-57565000D02*
X86600000Y-57565000D01*
X116075000Y-62575000D02*
X118175000Y-62575000D01*
X76340000Y-57540000D02*
X81375000Y-57540000D01*
X86600000Y-57565000D02*
X86650000Y-57515000D01*
X124875000Y-62575000D02*
X137375000Y-62575000D01*
X83100000Y-57565000D02*
X83150000Y-57515000D01*
X83150000Y-57515000D02*
X86650000Y-57515000D01*
X119400000Y-61350000D02*
X123650000Y-61350000D01*
X83100000Y-61300000D02*
X97100000Y-61300000D01*
%TO.N,/D1*%
X86600000Y-60105000D02*
X86650000Y-60055000D01*
X89525000Y-58800000D02*
X96950000Y-58800000D01*
X112600000Y-58100000D02*
X114535000Y-60035000D01*
X83674500Y-60055000D02*
X86650000Y-60055000D01*
X76340000Y-60080000D02*
X81375000Y-60080000D01*
X88220000Y-60105000D02*
X89525000Y-58800000D01*
X124935000Y-60035000D02*
X137375000Y-60035000D01*
X81375000Y-60080000D02*
X81400000Y-60105000D01*
X114535000Y-60035000D02*
X116075000Y-60035000D01*
X81400000Y-60105000D02*
X86600000Y-60105000D01*
X83624500Y-60105000D02*
X88220000Y-60105000D01*
X102850000Y-58100000D02*
X112600000Y-58100000D01*
X118165000Y-60035000D02*
X119450000Y-58750000D01*
X83624500Y-60105000D02*
X83674500Y-60055000D01*
X123650000Y-58750000D02*
X124935000Y-60035000D01*
X116075000Y-60035000D02*
X118165000Y-60035000D01*
X119450000Y-58750000D02*
X123650000Y-58750000D01*
%TO.N,/D2*%
X102920500Y-56900000D02*
X113950000Y-56900000D01*
X84149000Y-62595000D02*
X81450000Y-62595000D01*
X118055000Y-57495000D02*
X119300000Y-56250000D01*
X119300000Y-56250000D02*
X123650000Y-56250000D01*
X76340000Y-62620000D02*
X81375000Y-62620000D01*
X86650000Y-62595000D02*
X84149000Y-62595000D01*
X114545000Y-57495000D02*
X116075000Y-57495000D01*
X81450000Y-62595000D02*
X81400000Y-62645000D01*
X102850000Y-56970500D02*
X102920500Y-56900000D01*
X116075000Y-57495000D02*
X118055000Y-57495000D01*
X124895000Y-57495000D02*
X137375000Y-57495000D01*
X113950000Y-56900000D02*
X114545000Y-57495000D01*
X123650000Y-56250000D02*
X124895000Y-57495000D01*
X81375000Y-62620000D02*
X81400000Y-62645000D01*
%TO.N,/D3*%
X87600000Y-58800000D02*
X90150000Y-56250000D01*
X118000000Y-56250000D02*
X119295000Y-54955000D01*
X90150000Y-56250000D02*
X96950000Y-56250000D01*
X84700000Y-58800000D02*
X87600000Y-58800000D01*
X114550000Y-56250000D02*
X118000000Y-56250000D01*
X76340000Y-65160000D02*
X81375000Y-65160000D01*
X96950000Y-56250000D02*
X98245000Y-54955000D01*
X98245000Y-54955000D02*
X100835000Y-54955000D01*
X81400000Y-65185000D02*
X84700000Y-65185000D01*
X113255000Y-54955000D02*
X114550000Y-56250000D01*
X86600000Y-65185000D02*
X86650000Y-65135000D01*
X81375000Y-65160000D02*
X81400000Y-65185000D01*
X84700000Y-65185000D02*
X86600000Y-65185000D01*
X100835000Y-54955000D02*
X113255000Y-54955000D01*
X119295000Y-54955000D02*
X122135000Y-54955000D01*
%TO.N,/D4*%
X81400000Y-67725000D02*
X86600000Y-67725000D01*
X119455000Y-57495000D02*
X122135000Y-57495000D01*
X88700000Y-67675000D02*
X86650000Y-67675000D01*
X114550000Y-58800000D02*
X118150000Y-58800000D01*
X81375000Y-67700000D02*
X81400000Y-67725000D01*
X88075500Y-95500000D02*
X88700000Y-95500000D01*
X118150000Y-58800000D02*
X119455000Y-57495000D01*
X113245000Y-57495000D02*
X114550000Y-58800000D01*
X76340000Y-67700000D02*
X81375000Y-67700000D01*
X86600000Y-67725000D02*
X86650000Y-67675000D01*
X100835000Y-57495000D02*
X113245000Y-57495000D01*
%TO.N,/D5*%
X86650000Y-70215000D02*
X81450000Y-70215000D01*
X119415000Y-60035000D02*
X122135000Y-60035000D01*
X89300000Y-70215000D02*
X86650000Y-70215000D01*
X76340000Y-70240000D02*
X81375000Y-70240000D01*
X113285000Y-60035000D02*
X114550000Y-61300000D01*
X114550000Y-61300000D02*
X118150000Y-61300000D01*
X81375000Y-70240000D02*
X81400000Y-70265000D01*
X81450000Y-70215000D02*
X81400000Y-70265000D01*
X100835000Y-60035000D02*
X113285000Y-60035000D01*
X118150000Y-61300000D02*
X119415000Y-60035000D01*
X90700000Y-94900000D02*
X89300000Y-94900000D01*
%TO.N,/D6*%
X118200000Y-63850000D02*
X114500000Y-63850000D01*
X76340000Y-72780000D02*
X81375000Y-72780000D01*
X89900000Y-72800000D02*
X89855000Y-72755000D01*
X114500000Y-63850000D02*
X113225000Y-62575000D01*
X113225000Y-62575000D02*
X100835000Y-62575000D01*
X86650000Y-72755000D02*
X81450000Y-72755000D01*
X81375000Y-72780000D02*
X81400000Y-72805000D01*
X119475000Y-62575000D02*
X118200000Y-63850000D01*
X92800000Y-94300000D02*
X89900000Y-94300000D01*
X89855000Y-72755000D02*
X86650000Y-72755000D01*
X81450000Y-72755000D02*
X81400000Y-72805000D01*
X122135000Y-62575000D02*
X119475000Y-62575000D01*
%TO.N,/D7*%
X100835000Y-65115000D02*
X113215000Y-65115000D01*
X113215000Y-65115000D02*
X114500000Y-66400000D01*
X95780000Y-93700000D02*
X90500000Y-93700000D01*
X119435000Y-65115000D02*
X122135000Y-65115000D01*
X90495000Y-75295000D02*
X86650000Y-75295000D01*
X86600000Y-75345000D02*
X86650000Y-75295000D01*
X90500000Y-75300000D02*
X90495000Y-75295000D01*
X81375000Y-75320000D02*
X81400000Y-75345000D01*
X114500000Y-66400000D02*
X118150000Y-66400000D01*
X118150000Y-66400000D02*
X119435000Y-65115000D01*
X81400000Y-75345000D02*
X86600000Y-75345000D01*
X76340000Y-75320000D02*
X81375000Y-75320000D01*
D23*
%TO.N,GND*%
X130475000Y-91550000D02*
X131450000Y-91550000D01*
X133870000Y-95020000D02*
X133850000Y-95000000D01*
X133870000Y-96300000D02*
X133870000Y-95020000D01*
X136337500Y-91550000D02*
X137350000Y-91550000D01*
X128790000Y-96300000D02*
X128790000Y-95060000D01*
X132600000Y-96300000D02*
X132600000Y-95000000D01*
X132600000Y-95000000D02*
X133850000Y-95000000D01*
X128790000Y-95060000D02*
X128800000Y-95050000D01*
%TO.N,+5V*%
X138200000Y-100100000D02*
X137680000Y-100620000D01*
X124012500Y-102212500D02*
X124000000Y-102200000D01*
X125000000Y-102212500D02*
X124012500Y-102212500D01*
X134000000Y-94200000D02*
X134000000Y-93512500D01*
X134000000Y-93512500D02*
X134062500Y-93450000D01*
X137680000Y-100620000D02*
X137680000Y-101250000D01*
X128200000Y-93450000D02*
X128200000Y-94100000D01*
D22*
%TO.N,/A13{slash}RAM*%
X105100000Y-82895000D02*
X100835000Y-82895000D01*
X97400000Y-85410000D02*
X97790000Y-85410000D01*
X100305000Y-82895000D02*
X100835000Y-82895000D01*
X97790000Y-85410000D02*
X100305000Y-82895000D01*
%TO.N,/~{NVRAM}*%
X113900000Y-68200000D02*
X114600000Y-68900000D01*
X127150000Y-91550000D02*
X128200000Y-91550000D01*
X114600000Y-68900000D02*
X118200000Y-68900000D01*
X125900000Y-95200000D02*
X125900000Y-92800000D01*
X119445000Y-67655000D02*
X122135000Y-67655000D01*
X107500000Y-68200000D02*
X113900000Y-68200000D01*
X125900000Y-92800000D02*
X127150000Y-91550000D01*
X124600000Y-96500000D02*
X125900000Y-95200000D01*
X107200000Y-96500000D02*
X124600000Y-96500000D01*
X118200000Y-68900000D02*
X119445000Y-67655000D01*
%TO.N,/RD_ANY*%
X113650000Y-73050000D02*
X114600000Y-74000000D01*
X108700000Y-73050000D02*
X113650000Y-73050000D01*
X118100000Y-74000000D02*
X119365000Y-72735000D01*
X109700000Y-104500000D02*
X74400000Y-104500000D01*
X114600000Y-74000000D02*
X118100000Y-74000000D01*
X119365000Y-72735000D02*
X122135000Y-72735000D01*
%TO.N,/~{WR_NVRAM}*%
X106300000Y-86700000D02*
X118300000Y-86700000D01*
X119565000Y-85435000D02*
X122135000Y-85435000D01*
X118300000Y-86700000D02*
X119565000Y-85435000D01*
X106300000Y-86700000D02*
X88250000Y-86700000D01*
X88250000Y-86700000D02*
X87000000Y-85450000D01*
%TO.N,Net-(JP1-B)*%
X85100000Y-80900000D02*
X85100000Y-86090000D01*
X64200000Y-76600000D02*
X80800000Y-76600000D01*
X80800000Y-76600000D02*
X85100000Y-80900000D01*
X85100000Y-86090000D02*
X87000000Y-87990000D01*
%TO.N,/0000H*%
X136420000Y-101260000D02*
X136410000Y-101250000D01*
X95180000Y-82870000D02*
X93600000Y-82870000D01*
X136337500Y-93450000D02*
X137650000Y-93450000D01*
X136420000Y-103900000D02*
X95200000Y-103900000D01*
X137650000Y-93450000D02*
X137700000Y-93500000D01*
X95200000Y-82850000D02*
X95180000Y-82870000D01*
X136420000Y-102580000D02*
X136420000Y-101260000D01*
%TO.N,/CS_EX_ROM*%
X131456250Y-90500000D02*
X132506250Y-91550000D01*
X123900000Y-95900000D02*
X125200000Y-94600000D01*
X125200000Y-92400000D02*
X127100000Y-90500000D01*
X127100000Y-90500000D02*
X131456250Y-90500000D01*
X132506250Y-91550000D02*
X134062500Y-91550000D01*
X125200000Y-94600000D02*
X125200000Y-92400000D01*
X111700000Y-95900000D02*
X123900000Y-95900000D01*
%TO.N,/8000H*%
X130475000Y-93450000D02*
X131750000Y-93450000D01*
X131330000Y-101250000D02*
X131330000Y-102550000D01*
X131750000Y-93450000D02*
X131800000Y-93500000D01*
X131330000Y-102550000D02*
X131340000Y-102560000D01*
%TO.N,/E000H*%
X130130000Y-95000000D02*
X130130000Y-96300000D01*
%TO.N,/C000H*%
X128800000Y-101310000D02*
X128860000Y-101250000D01*
X128800000Y-102600000D02*
X128800000Y-101310000D01*
%TO.N,/A000H*%
X130050000Y-102630000D02*
X130050000Y-101330000D01*
X130050000Y-101330000D02*
X130130000Y-101250000D01*
%TO.N,/6000H*%
X132600000Y-102600000D02*
X132600000Y-101250000D01*
%TO.N,/4000H*%
X133900000Y-101280000D02*
X133870000Y-101250000D01*
X133900000Y-102600000D02*
X133900000Y-101280000D01*
%TO.N,/2000H*%
X135100000Y-101290000D02*
X135140000Y-101250000D01*
X135100000Y-102600000D02*
X135100000Y-101290000D01*
%TO.N,/DECODER*%
X113124500Y-100300000D02*
X126900000Y-100300000D01*
X113100000Y-100324500D02*
X113124500Y-100300000D01*
X126900000Y-100300000D02*
X127500000Y-99700000D01*
X131330000Y-95030000D02*
X131300000Y-95000000D01*
X131330000Y-96300000D02*
X131330000Y-95030000D01*
%TD*%
M02*
